<?xml version="1.0" encoding="UTF-8" standalone="no"?>
<!DOCTYPE svg PUBLIC "-//W3C//DTD SVG 1.1//EN" "http://www.w3.org/Graphics/SVG/1.1/DTD/svg11.dtd">
<svg xmlns="http://www.w3.org/2000/svg" version="1.1" viewBox="0.00 0.00 1024.00 1024.00">
<g stroke-width="2.00" fill="none" stroke-linecap="butt">
<path stroke="#287b89" vector-effect="non-scaling-stroke" d="
  M 491.97 166.24
  L 483.37 166.39"
/>
<path stroke="#10576a" vector-effect="non-scaling-stroke" d="
  M 483.37 166.39
  Q 479.41 166.27 480.97 167.27"
/>
<path stroke="#287b89" vector-effect="non-scaling-stroke" d="
  M 480.97 167.27
  Q 477.38 167.46 473.65 167.60
  Q 472.55 167.64 471.50 168.08
  C 470.00 168.71 467.98 168.46 466.30 168.71
  Q 436.63 173.05 407.74 182.55
  Q 407.15 182.74 406.83 183.00
  A 0.47 0.46 19.3 0 1 406.70 183.06
  L 401.13 184.35
  Q 400.58 184.47 400.22 184.91
  Q 399.60 185.69 398.71 185.57
  Q 398.21 185.50 397.88 185.89
  Q 397.17 186.74 395.95 186.55
  A 1.27 1.26 -70.9 0 0 394.66 187.18
  Q 394.25 187.89 393.61 187.54
  Q 393.01 187.20 392.37 187.50
  Q 392.00 187.68 392.16 187.86
  Q 392.23 187.93 392.32 187.89
  Q 392.53 187.79 392.66 187.98
  A 0.30 0.30 0.0 0 1 392.40 188.44
  Q 390.60 188.33 389.42 189.29
  Q 389.06 189.58 388.60 189.55
  Q 387.69 189.48 386.94 190.02
  Q 385.63 190.97 383.99 191.37
  Q 382.85 191.64 381.77 192.15
  Q 380.22 192.88 378.74 193.73"
/>
<path stroke="#10576a" vector-effect="non-scaling-stroke" d="
  M 378.74 193.73
  Q 378.67 193.58 378.65 193.46
  Q 378.62 193.24 378.40 193.25
  Q 375.16 193.35 377.78 194.08"
/>
<path stroke="#287b89" vector-effect="non-scaling-stroke" d="
  M 377.78 194.08
  Q 377.25 194.57 376.23 194.62
  Q 375.74 194.64 375.31 194.86
  L 369.70 197.69"
/>
<path stroke="#10576a" vector-effect="non-scaling-stroke" d="
  M 369.70 197.69
  L 369.74 197.36
  Q 369.79 196.98 369.42 197.05
  Q 366.77 197.52 368.82 198.13"
/>
<path stroke="#287b89" vector-effect="non-scaling-stroke" d="
  M 368.82 198.13
  Q 367.39 198.38 365.72 199.20
  Q 356.22 203.83 346.32 208.87
  C 345.50 209.28 345.09 209.96 344.19 210.41
  C 341.41 211.82 338.14 213.18 335.54 215.12
  Q 334.16 216.14 332.45 216.75
  A 1.85 1.79 6.6 0 0 331.56 217.43
  Q 330.73 218.65 329.40 218.72
  Q 328.99 218.75 328.74 219.06
  C 327.88 220.10 326.67 219.53 325.67 220.36
  Q 324.89 221.00 325.90 220.94
  C 334.57 220.40 343.18 220.25 352.01 220.94
  Q 360.15 221.57 363.53 221.98
  C 407.02 227.21 448.34 246.50 478.70 278.41
  A 0.60 0.60 0.0 0 0 479.67 278.26
  Q 491.49 254.48 508.04 235.30
  Q 539.25 199.14 585.09 184.12
  Q 596.20 180.47 607.28 177.97
  Q 608.26 177.75 607.30 177.47
  Q 585.44 171.07 562.89 168.01
  C 559.61 167.56 556.42 167.56 553.24 166.98
  C 549.13 166.24 545.18 166.85 541.12 166.03
  Q 538.59 165.51 535.82 165.48
  Q 515.86 165.25 496.02 165.43"
/>
<path stroke="#10576a" vector-effect="non-scaling-stroke" d="
  M 496.02 165.43
  Q 495.19 165.17 494.24 165.26
  Q 490.96 165.58 491.97 166.24"
/>
<path stroke="#2ca4b5" vector-effect="non-scaling-stroke" d="
  M 496.02 165.43
  Q 495.10 166.87 491.97 166.24"
/>
<path stroke="#2ca4b5" vector-effect="non-scaling-stroke" d="
  M 368.82 198.13
  Q 369.38 197.95 369.70 197.69"
/>
<path stroke="#2ca4b5" vector-effect="non-scaling-stroke" d="
  M 377.78 194.08
  L 378.74 193.73"
/>
<path stroke="#2ca4b5" vector-effect="non-scaling-stroke" d="
  M 480.97 167.27
  Q 482.59 167.65 483.37 166.39"
/>
<path stroke="#37652c" vector-effect="non-scaling-stroke" d="
  M 524.79 264.13
  Q 509.81 283.70 501.76 305.87
  Q 499.80 311.28 503.21 306.65
  Q 514.78 290.94 531.18 276.26
  Q 538.05 270.11 548.96 262.75
  C 550.40 261.78 551.90 261.20 553.34 260.29
  A 0.64 0.64 0.0 0 0 553.64 259.83
  Q 553.67 259.68 553.73 259.52"
/>
<path stroke="#5c7b40" vector-effect="non-scaling-stroke" d="
  M 553.73 259.52
  L 554.21 259.32"
/>
<path stroke="#37652c" vector-effect="non-scaling-stroke" d="
  M 554.21 259.32
  Q 554.26 259.46 554.30 259.60
  Q 554.39 259.88 554.69 259.84
  Q 556.51 259.56 555.45 258.79"
/>
<path stroke="#5c7b40" vector-effect="non-scaling-stroke" d="
  M 555.45 258.79
  Q 559.75 257.80 563.98 258.31
  Q 566.51 258.61 568.48 260.35
  Q 571.32 262.85 573.28 265.88"
/>
<path stroke="#37652c" vector-effect="non-scaling-stroke" d="
  M 573.28 265.88
  Q 574.84 271.48 573.63 276.74
  Q 573.16 278.76 571.88 280.16
  Q 570.23 281.95 568.40 283.24
  Q 560.89 288.52 555.89 293.09
  Q 544.21 303.76 533.11 318.72
  C 532.73 319.24 532.24 319.56 531.82 320.03
  Q 530.38 321.69 532.35 320.71
  Q 567.48 303.12 607.21 303.13
  Q 610.79 303.13 623.65 303.72
  Q 626.21 303.84 628.33 304.16
  C 631.43 304.63 635.91 305.41 638.45 304.08
  Q 642.93 301.74 647.04 299.00
  Q 676.15 279.52 696.95 248.44
  Q 701.66 241.40 704.06 236.75"
/>
<path stroke="#5c7b40" vector-effect="non-scaling-stroke" d="
  M 704.06 236.75
  Q 711.09 226.51 716.72 214.48"
/>
<path stroke="#86979f" vector-effect="non-scaling-stroke" d="
  M 716.72 214.48
  L 716.71 213.40
  Q 716.71 212.96 716.29 212.85
  Q 708.68 210.87 701.15 208.97
  Q 692.46 206.77 682.39 205.13
  Q 679.93 204.73 677.80 204.56
  C 673.90 204.25 670.32 203.39 666.36 203.40
  C 662.57 203.41 659.00 202.68 655.20 202.65
  Q 647.40 202.56 640.09 202.72
  Q 639.74 202.73 639.45 202.93
  Q 638.99 203.26 638.43 203.28
  L 629.16 203.59
  Q 628.92 203.60 628.75 203.77
  Q 628.65 203.88 628.53 203.97
  Q 628.27 204.18 627.93 204.21
  Q 624.96 204.51 622.29 204.56
  Q 621.85 204.57 621.61 204.94
  Q 621.45 205.17 621.17 205.21
  C 619.43 205.44 617.28 205.24 615.70 205.98
  C 614.09 206.73 612.45 206.36 610.70 207.12
  C 609.37 207.69 608.05 207.27 606.79 208.09
  Q 606.17 208.51 605.42 208.46
  Q 604.43 208.40 603.64 208.94
  Q 603.30 209.16 602.90 209.25
  Q 600.59 209.72 596.88 210.96
  Q 589.74 213.35 582.70 216.54
  Q 582.05 216.84 581.52 217.25
  A 1.14 1.13 -61.9 0 1 580.78 217.48
  Q 580.07 217.46 579.76 218.05
  A 0.94 0.93 14.6 0 1 578.92 218.54
  Q 578.78 218.54 578.63 218.53
  Q 578.09 218.52 577.80 218.98
  Q 577.38 219.65 576.62 219.50
  A 0.64 0.63 -70.9 0 0 575.92 219.85
  Q 575.61 220.50 574.88 220.50
  A 1.08 0.99 26.7 0 0 574.32 220.66
  Q 572.41 221.78 570.38 222.85
  Q 568.50 223.85 566.71 225.02
  Q 561.74 228.27 556.87 231.61
  C 555.21 232.75 553.90 234.15 552.28 235.30
  Q 550.07 236.87 548.75 238.29
  C 546.74 240.44 544.36 241.82 542.31 243.82
  Q 532.75 253.16 524.79 264.13"
/>
<path stroke="#d6e4a1" vector-effect="non-scaling-stroke" d="
  M 716.72 214.48
  Q 679.97 203.78 642.26 206.53
  Q 623.87 207.88 606.24 213.29
  Q 573.23 223.41 545.66 244.16
  Q 540.46 248.07 535.06 253.41"
/>
<path stroke="#b1cd8d" vector-effect="non-scaling-stroke" d="
  M 535.06 253.41
  L 524.79 264.13"
/>
<path stroke="#87b22e" vector-effect="non-scaling-stroke" d="
  M 704.06 236.75
  Q 691.71 243.39 680.10 249.99
  Q 668.59 256.53 662.36 259.18
  Q 619.65 277.30 573.28 265.88"
/>
<path stroke="#87b22e" vector-effect="non-scaling-stroke" d="
  M 555.45 258.79
  Q 554.90 259.23 554.21 259.32"
/>
<path stroke="#87b22e" vector-effect="non-scaling-stroke" d="
  M 553.73 259.52
  L 553.13 259.80
  Q 552.67 260.02 552.20 259.84
  L 535.06 253.41"
/>
<path stroke="#186d7d" vector-effect="non-scaling-stroke" d="
  M 789.11 454.26
  Q 794.52 476.92 794.86 500.89
  A 1.22 1.21 8.7 0 0 795.70 502.03
  Q 813.04 507.69 828.81 517.31
  Q 845.75 527.63 860.18 545.41
  Q 860.32 545.57 860.51 545.65
  Q 860.82 545.77 860.80 546.12
  Q 860.75 546.85 861.30 547.36
  Q 861.76 547.79 861.87 547.16
  Q 862.48 543.68 862.53 540.69
  C 862.59 537.22 863.60 534.14 863.56 530.55
  Q 863.52 526.47 863.95 522.62"
/>
<path stroke="#10576a" vector-effect="non-scaling-stroke" d="
  M 863.95 522.62
  Q 865.41 519.02 864.60 514.61"
/>
<path stroke="#186d7d" vector-effect="non-scaling-stroke" d="
  M 864.60 514.61
  L 864.59 499.38"
/>
<path stroke="#10576a" vector-effect="non-scaling-stroke" d="
  M 864.59 499.38
  Q 865.51 492.77 863.80 487.07"
/>
<path stroke="#186d7d" vector-effect="non-scaling-stroke" d="
  M 863.80 487.07
  Q 863.91 480.63 862.99 473.97
  Q 862.73 472.07 862.07 466.75
  Q 858.70 439.68 852.50 416.04"
/>
<path stroke="#287b89" vector-effect="non-scaling-stroke" d="
  M 852.50 416.04
  Q 838.66 365.64 810.59 323.41
  Q 779.71 276.95 736.56 241.53
  A 0.55 0.55 0.0 0 0 735.68 241.80
  C 735.57 242.20 735.56 242.53 735.36 242.90
  Q 731.96 249.48 728.36 255.71
  Q 708.44 290.12 678.72 315.23
  Q 677.95 315.88 677.06 316.32
  A 0.44 0.44 0.0 0 0 677.07 317.11
  Q 721.76 338.04 751.25 376.50
  C 769.47 400.25 782.14 424.98 789.11 454.26"
/>
<path stroke="#34bac8" vector-effect="non-scaling-stroke" d="
  M 852.50 416.04
  Q 847.92 425.82 842.42 433.16
  Q 840.00 436.39 836.43 438.36"
/>
<path stroke="#a2e4ea" vector-effect="non-scaling-stroke" d="
  M 836.43 438.36
  Q 836.51 427.12 828.14 423.18
  C 822.08 420.32 815.22 421.49 810.58 426.36
  Q 804.18 433.09 807.63 442.24"
/>
<path stroke="#34bac8" vector-effect="non-scaling-stroke" d="
  M 807.63 442.24
  Q 799.04 449.69 789.11 454.26"
/>
<path stroke="#1c96a8" vector-effect="non-scaling-stroke" d="
  M 863.80 487.07
  Q 863.29 493.36 864.59 499.38"
/>
<path stroke="#1c96a8" vector-effect="non-scaling-stroke" d="
  M 864.60 514.61
  Q 863.15 518.31 863.95 522.62"
/>
<path stroke="#92d6dd" vector-effect="non-scaling-stroke" d="
  M 807.63 442.24
  Q 809.51 447.36 813.28 449.46
  C 818.78 452.51 826.25 452.33 831.16 448.24
  Q 835.59 444.56 836.43 438.36"
/>
<path stroke="#37652c" vector-effect="non-scaling-stroke" d="
  M 309.45 253.54
  Q 307.65 253.46 307.57 254.23"
/>
<path stroke="#86979f" vector-effect="non-scaling-stroke" d="
  M 307.57 254.23
  L 299.08 255.56
  Q 298.54 255.65 298.05 255.89
  Q 296.72 256.55 295.10 256.55
  A 2.03 2.02 -59.1 0 0 294.07 256.81
  Q 292.83 257.49 291.32 257.52
  Q 290.75 257.53 290.24 257.80
  C 288.88 258.50 287.31 258.60 285.79 259.06
  Q 266.49 264.90 248.75 274.50
  Q 242.92 277.66 237.22 281.07"
/>
<path stroke="#6b8b95" vector-effect="non-scaling-stroke" d="
  M 237.22 281.07
  L 235.16 282.46"
/>
<path stroke="#4e7238" vector-effect="non-scaling-stroke" d="
  M 235.16 282.46
  Q 226.02 288.47 221.76 291.46
  Q 216.00 295.50 209.03 301.31"
/>
<path stroke="#37652c" vector-effect="non-scaling-stroke" d="
  M 209.03 301.31
  Q 183.70 321.95 162.49 346.49
  A 0.80 0.80 0.0 0 0 162.70 347.71
  Q 173.14 353.66 184.14 358.31
  C 201.32 365.59 218.63 371.59 236.72 374.94
  Q 252.50 377.86 269.20 378.65
  Q 271.21 378.74 272.38 377.14
  Q 302.30 336.18 349.14 316.00"
/>
<path stroke="#4e7238" vector-effect="non-scaling-stroke" d="
  M 349.14 316.00
  Q 353.08 314.16 355.25 313.51
  Q 369.03 309.40 383.69 306.24"
/>
<path stroke="#5c7b40" vector-effect="non-scaling-stroke" d="
  M 383.69 306.24
  Q 401.24 303.72 416.75 304.92
  Q 425.46 305.60 428.18 305.71"
/>
<path stroke="#37652c" vector-effect="non-scaling-stroke" d="
  M 428.18 305.71
  Q 429.63 306.83 430.79 306.45"
/>
<path stroke="#5c7b40" vector-effect="non-scaling-stroke" d="
  M 430.79 306.45
  Q 433.20 306.33 435.41 307.00
  C 437.01 307.48 438.48 307.32 439.90 307.83
  Q 441.53 308.40 443.18 308.71
  Q 445.68 309.17 448.45 309.75"
/>
<path stroke="#86979f" vector-effect="non-scaling-stroke" d="
  M 448.45 309.75
  L 470.97 318.00
  Q 471.71 318.27 471.26 317.62
  Q 438.36 270.45 382.00 256.40
  Q 373.19 254.21 364.54 253.20
  C 363.58 253.09 362.54 252.56 361.64 252.57
  Q 357.59 252.59 354.02 252.17
  Q 348.35 251.52 346.43 251.50
  C 339.53 251.46 332.82 251.24 326.10 252.08
  Q 322.81 252.49 319.20 252.55
  Q 317.42 252.58 314.37 253.19
  Q 311.99 253.67 309.45 253.54"
/>
<path stroke="#d6e4a1" vector-effect="non-scaling-stroke" d="
  M 448.45 309.75
  Q 438.48 297.78 425.09 288.41
  C 408.49 276.80 390.86 268.18 371.72 262.38
  Q 342.52 253.53 311.23 257.10"
/>
<path stroke="#c8db98" vector-effect="non-scaling-stroke" d="
  M 311.23 257.10
  Q 300.01 258.28 288.50 261.31
  Q 269.45 266.33 251.63 274.75
  Q 244.62 278.05 237.75 281.54"
/>
<path stroke="#e4f4f5" vector-effect="non-scaling-stroke" d="
  M 237.75 281.54
  Q 237.07 281.50 237.22 281.07"
/>
<path stroke="#b1cd8d" vector-effect="non-scaling-stroke" d="
  M 307.57 254.23
  Q 308.58 254.33 309.45 253.54"
/>
<path stroke="#87b22e" vector-effect="non-scaling-stroke" d="
  M 430.79 306.45
  Q 429.63 305.81 428.18 305.71"
/>
<path stroke="#9ebf3a" vector-effect="non-scaling-stroke" d="
  M 383.69 306.24
  Q 363.97 298.10 346.42 287.04
  Q 329.85 276.60 315.98 262.77
  Q 313.29 260.08 311.23 257.10"
/>
<path stroke="#79a926" vector-effect="non-scaling-stroke" d="
  M 349.14 316.00
  L 348.14 315.07
  Q 347.81 314.76 347.35 314.76
  Q 345.20 314.73 343.62 315.11
  Q 336.04 316.94 319.88 320.14
  Q 284.97 327.04 252.75 329.83
  Q 243.47 330.64 234.44 330.79
  C 233.21 330.81 232.94 329.73 231.86 329.28
  Q 216.63 322.84 210.98 306.78
  Q 210.04 304.11 209.03 301.31"
/>
<path stroke="#adcf8e" vector-effect="non-scaling-stroke" d="
  M 235.16 282.46
  Q 235.94 282.78 237.75 281.54"
/>
<path stroke="#784628" vector-effect="non-scaling-stroke" d="
  M 330.19 362.82
  Q 329.57 362.30 328.98 362.77
  Q 317.18 372.19 308.63 381.80
  Q 307.28 383.31 306.04 384.64
  Q 304.07 386.75 302.86 388.58
  Q 301.92 390.00 300.77 391.12
  Q 299.50 392.36 298.63 393.82
  C 297.62 395.53 296.16 396.54 295.37 398.35
  A 2.17 2.12 -7.1 0 1 294.66 399.24
  Q 293.76 399.91 293.54 400.95
  Q 293.42 401.47 293.05 401.85
  L 291.98 402.95
  Q 291.64 403.30 291.56 403.79
  C 291.33 405.21 289.88 405.44 289.59 406.79
  Q 289.48 407.27 289.15 407.65
  Q 287.45 409.58 286.40 412.19
  C 286.11 412.91 285.61 413.17 285.27 413.78
  Q 283.22 417.39 281.27 421.41
  Q 281.10 421.76 280.77 421.96
  Q 280.31 422.24 280.52 422.74
  Q 264.63 454.33 260.57 489.52
  C 260.13 493.28 259.50 496.79 259.39 500.51
  Q 258.64 525.04 259.64 537.59
  Q 262.45 573.00 278.19 609.19
  C 293.19 643.69 316.56 675.04 346.12 699.00
  Q 385.90 731.25 434.80 747.38
  Q 435.20 747.51 435.64 747.53
  Q 436.26 747.56 436.60 748.02
  Q 436.89 748.40 437.36 748.46
  L 438.81 748.64
  Q 439.31 748.71 439.72 749.01
  Q 440.62 749.68 441.76 749.59
  Q 442.27 749.54 442.66 749.86
  Q 443.51 750.56 444.61 750.55
  Q 445.07 750.55 445.48 750.76
  L 447.40 751.75
  A 0.39 0.39 0.0 0 0 447.97 751.40
  L 447.99 644.02"
/>
<path stroke="#836831" vector-effect="non-scaling-stroke" d="
  M 447.99 644.02
  Q 448.00 632.69 448.12 621.50
  Q 448.17 616.98 448.60 613.75
  C 449.19 609.20 452.43 604.72 456.44 602.18
  Q 462.73 598.18 469.75 598.11
  Q 503.98 597.76 550.37 598.12
  Q 556.24 598.16 560.74 599.66
  C 566.70 601.65 572.67 606.66 574.20 613.01
  Q 574.91 615.99 574.93 619.14
  Q 575.03 643.90 574.95 670.26
  Q 574.95 671.02 575.68 670.81
  Q 590.97 666.41 604.99 666.55
  Q 612.37 666.63 621.75 667.61
  Q 622.44 667.69 622.27 667.02
  Q 620.50 659.94 619.58 652.78
  Q 618.62 645.29 618.43 636.02
  Q 617.90 610.31 626.91 586.27
  A 1.20 1.19 29.4 0 0 626.53 584.92
  L 617.98 578.27"
/>
<path stroke="#84773c" vector-effect="non-scaling-stroke" d="
  M 617.98 578.27
  L 513.33 498.03
  A 1.68 1.67 45.1 0 0 511.31 498.02
  L 457.29 539.13"
/>
<path stroke="#836831" vector-effect="non-scaling-stroke" d="
  M 457.29 539.13
  L 392.33 589.68"
/>
<path stroke="#784628" vector-effect="non-scaling-stroke" d="
  M 392.33 589.68
  Q 385.93 595.41 383.47 596.15
  Q 377.58 597.93 371.70 596.59
  Q 370.52 596.32 369.50 595.61
  Q 368.52 594.92 367.50 594.30
  Q 364.31 592.34 363.53 588.23
  Q 360.90 574.26 374.87 566.82"
/>
<path stroke="#836831" vector-effect="non-scaling-stroke" d="
  M 374.87 566.82
  L 430.02 524.32"
/>
<path stroke="#84773c" vector-effect="non-scaling-stroke" d="
  M 430.02 524.32
  Q 463.73 498.46 497.28 472.27
  Q 499.55 470.50 506.12 466.83
  Q 509.63 464.87 511.99 464.91
  Q 515.25 464.96 518.19 466.82
  Q 522.55 469.57 525.66 471.88
  Q 542.45 484.32 558.84 498.01
  A 0.52 0.52 0.0 0 0 559.64 497.86
  Q 559.88 497.42 559.90 496.95
  Q 560.26 487.77 560.07 478.51
  Q 559.94 471.47 565.88 466.48
  C 569.35 463.57 573.71 463.51 577.94 464.33
  C 586.63 466.01 588.79 473.44 588.78 481.20
  Q 588.78 500.44 588.52 518.12
  Q 588.49 520.18 590.06 521.49
  Q 592.24 523.32 594.18 524.84
  Q 617.04 542.84 639.68 559.84
  A 0.67 0.66 -54.8 0 0 640.63 559.67
  Q 668.98 516.58 718.61 501.46"
/>
<path stroke="#86979f" vector-effect="non-scaling-stroke" d="
  M 718.61 501.46
  Q 740.82 495.34 764.19 496.72
  Q 764.84 496.76 764.78 496.11
  C 764.46 492.43 764.61 488.81 764.20 485.08
  Q 758.40 432.13 723.95 391.02
  C 698.87 361.07 664.15 340.04 625.25 334.84
  C 622.18 334.43 619.21 334.57 616.15 334.16
  Q 612.66 333.68 609.49 333.69
  C 606.04 333.69 602.50 333.50 599.09 334.06
  C 595.83 334.61 592.63 334.41 589.29 334.87
  Q 567.93 337.81 547.73 346.69
  Q 529.94 354.51 515.72 364.26
  Q 513.10 366.05 510.57 367.69
  C 509.41 368.44 508.63 369.51 507.49 370.16
  C 505.11 371.51 503.32 373.54 500.93 374.94
  A 0.93 0.93 0.0 0 1 499.80 374.80
  C 497.50 372.50 494.87 369.49 492.13 367.67
  C 490.53 366.60 489.23 365.15 487.72 363.94
  Q 461.66 342.93 428.21 337.46
  Q 425.43 337.01 417.29 336.21
  Q 409.57 335.45 403.42 335.77
  Q 398.08 336.05 392.40 336.61
  Q 386.64 337.19 381.26 338.44
  Q 355.14 344.52 332.70 360.48
  Q 331.05 361.66 330.19 362.82"
/>
<path stroke="#fde09c" vector-effect="non-scaling-stroke" d="
  M 718.61 501.46
  C 716.76 499.18 714.28 497.08 712.95 494.74
  C 707.56 485.25 713.94 478.02 721.63 472.97
  Q 723.10 472.01 723.17 470.32
  C 723.39 464.86 722.26 459.90 716.89 457.31
  Q 713.49 455.67 710.36 454.12
  C 700.97 449.46 697.85 440.29 693.39 431.89
  Q 684.91 415.92 671.78 403.22
  Q 663.77 395.48 656.75 391.77
  Q 652.35 389.45 647.80 387.15
  C 640.57 383.50 639.06 377.25 638.24 369.66
  C 638.05 367.89 637.06 366.85 635.68 365.86
  Q 632.59 363.64 629.34 362.25
  Q 616.86 356.92 601.55 355.33
  C 596.42 354.79 591.16 355.06 586.07 354.98
  Q 580.25 354.89 574.59 355.63
  Q 559.02 357.65 543.95 363.53
  A 0.68 0.68 0.0 0 0 543.80 364.72
  Q 587.26 396.21 609.16 446.15
  Q 618.31 466.99 623.45 489.34
  Q 625.44 498.02 626.46 508.08
  C 627.33 516.61 622.60 523.93 612.94 521.61
  C 608.27 520.49 605.87 514.45 605.31 510.17
  C 604.04 500.40 602.77 490.95 599.98 481.38
  Q 583.98 426.38 543.64 389.15
  Q 532.02 378.42 517.73 370.51
  C 516.75 369.97 515.07 369.75 514.06 370.24
  Q 501.58 376.29 493.54 382.80
  Q 492.29 383.81 490.75 384.34
  Q 490.24 384.52 489.90 384.10
  C 488.38 382.22 486.97 380.30 485.17 378.65
  Q 479.64 373.57 475.66 370.39
  Q 454.86 353.77 428.45 348.28
  C 425.82 347.73 423.18 347.09 420.49 346.96
  C 417.82 346.83 415.50 346.00 412.83 346.00
  C 406.00 346.00 398.85 345.53 392.17 346.39
  Q 389.17 346.78 386.01 347.26
  Q 358.21 351.51 334.86 367.30
  Q 333.26 368.39 331.74 369.83
  Q 330.31 371.18 328.73 372.50"
/>
<path stroke="#f2ae88" vector-effect="non-scaling-stroke" d="
  M 328.73 372.50
  L 330.19 362.82"
/>
<path stroke="#fbb12f" vector-effect="non-scaling-stroke" d="
  M 430.02 524.32
  Q 412.79 513.42 397.30 500.49
  Q 369.37 477.20 349.90 447.45
  C 346.77 442.68 343.97 437.64 341.15 432.64
  Q 338.09 427.23 335.56 421.50
  Q 330.15 409.28 329.00 405.50
  Q 326.07 395.77 322.66 385.50"
/>
<path stroke="#f08f25" vector-effect="non-scaling-stroke" d="
  M 322.66 385.50
  Q 326.54 380.45 328.73 372.50"
/>
<path stroke="#ef801b" vector-effect="non-scaling-stroke" d="
  M 322.66 385.50
  Q 312.28 401.81 308.18 419.75
  Q 306.45 427.35 307.21 435.11
  C 307.89 442.06 311.30 447.35 318.43 449.01
  Q 320.26 449.43 321.97 450.01
  A 1.28 1.27 -84.6 0 1 322.84 451.07
  Q 324.49 464.99 327.19 475.96
  Q 335.94 511.60 357.05 543.93
  Q 363.79 554.24 371.16 564.36
  Q 372.09 565.64 374.87 566.82"
/>
<path stroke="#ef801b" vector-effect="non-scaling-stroke" d="
  M 392.33 589.68
  Q 399.74 599.35 405.08 604.92
  Q 414.25 614.48 431.06 630.18
  Q 437.94 636.61 443.23 640.79
  Q 444.87 642.09 447.99 644.02"
/>
<path stroke="#fbb12f" vector-effect="non-scaling-stroke" d="
  M 617.98 578.27
  Q 612.79 579.63 607.75 578.97
  Q 602.47 578.29 598.27 577.97
  Q 592.34 577.52 588.78 577.07
  Q 583.41 576.39 578.01 575.97
  C 575.54 575.78 573.43 574.92 571.01 574.99
  C 569.23 575.05 567.76 574.21 566.02 574.10
  Q 564.25 573.99 562.50 573.68
  Q 512.69 564.94 466.81 544.44
  Q 461.76 542.19 457.29 539.13"
/>
<path stroke="#186d7d" vector-effect="non-scaling-stroke" d="
  M 163.39 509.14
  Q 163.59 517.23 163.37 524.89
  Q 163.29 527.66 163.75 530.84
  C 164.44 535.66 164.47 540.67 164.91 545.37
  Q 167.16 568.93 173.34 592.98
  Q 173.63 594.12 174.67 593.56
  C 189.40 585.49 205.84 580.11 222.68 578.60
  Q 228.52 578.08 234.16 577.67
  Q 234.97 577.61 234.79 576.81
  Q 231.71 563.31 230.04 550.67
  C 229.66 547.78 229.64 544.92 229.16 542.00
  Q 228.66 538.96 228.57 535.58
  Q 227.96 513.66 228.92 499.19
  Q 229.74 486.88 232.23 473.09
  Q 237.98 441.17 251.65 412.47
  A 1.32 1.31 -3.8 0 1 252.12 411.94
  Q 252.57 411.64 252.77 411.16
  Q 253.12 410.31 252.20 410.34
  Q 250.38 410.41 248.01 409.83
  C 244.78 409.04 240.30 408.76 236.66 408.20
  Q 210.36 404.13 185.90 393.37
  A 0.61 0.61 0.0 0 0 185.08 393.71
  Q 165.62 444.46 163.44 499.00
  Q 163.26 503.51 163.39 509.14"
/>
<path stroke="#6b8b95" vector-effect="non-scaling-stroke" d="
  M 649.47 638.35
  Q 649.05 643.20 650.72 651.55
  Q 653.06 663.27 656.80 672.47
  Q 658.43 676.47 659.66 681.21"
/>
<path stroke="#86979f" vector-effect="non-scaling-stroke" d="
  M 659.66 681.21
  Q 655.86 685.45 654.30 687.55
  Q 649.71 693.74 647.22 701.01
  C 646.45 703.26 646.30 705.69 645.81 708.08
  A 1.06 1.05 -67.3 0 1 644.20 708.75
  Q 630.17 699.42 614.16 697.41
  Q 603.40 696.05 593.85 697.79
  Q 568.91 702.31 552.78 721.49
  Q 538.22 738.79 536.00 761.71
  A 0.15 0.15 0.0 0 0 536.15 761.88
  Q 668.36 761.46 800.63 761.86
  Q 811.58 761.89 819.47 760.86
  C 844.89 757.53 866.83 742.56 880.74 721.11
  C 892.93 702.32 897.76 679.07 892.76 657.18
  Q 886.72 630.74 867.04 612.07
  C 864.09 609.26 860.74 606.98 857.55 604.51
  Q 856.62 603.79 856.34 602.65
  Q 851.57 583.10 838.60 566.75
  Q 831.08 557.27 822.12 550.24
  Q 798.14 531.42 767.67 527.83
  C 762.89 527.27 758.17 527.40 753.40 527.37
  Q 748.31 527.34 743.08 528.00
  Q 714.63 531.59 690.89 549.65
  Q 688.84 551.20 686.86 553.04
  Q 684.91 554.85 682.91 556.45
  Q 679.33 559.32 676.69 562.84
  Q 675.05 565.03 673.02 566.95
  C 671.82 568.07 671.40 569.49 670.23 570.69
  Q 669.11 571.83 668.34 573.19
  Q 667.41 574.81 666.03 576.17
  Q 665.68 576.52 666.12 576.75
  Q 666.27 576.83 666.45 576.88
  Q 667.15 577.08 666.47 577.35
  Q 666.26 577.43 666.08 577.31
  Q 665.62 577.00 665.32 577.48
  Q 663.87 579.82 663.58 580.51
  Q 663.13 581.58 662.69 582.19
  Q 661.69 583.57 661.67 583.62
  Q 652.92 600.69 650.83 614.59
  Q 650.46 617.03 649.93 619.60
  Q 649.47 621.89 649.38 624.19
  Q 649.13 630.60 649.47 638.35"
/>
<path stroke="#e4f4f5" vector-effect="non-scaling-stroke" d="
  M 659.66 681.21
  Q 662.86 679.21 665.97 677.16
  Q 669.91 674.55 672.49 673.45
  C 684.37 668.36 698.22 668.77 710.24 673.11
  A 0.58 0.58 0.0 0 0 711.01 672.50
  Q 707.33 641.07 727.76 618.49
  C 743.79 600.79 769.24 593.85 792.43 597.10
  Q 797.35 597.79 801.67 598.75
  Q 803.17 599.09 802.06 598.03
  C 794.91 591.21 785.54 585.62 776.22 582.28
  Q 749.53 572.71 722.75 580.74
  C 707.85 585.21 693.25 594.55 681.59 605.10
  Q 664.90 620.20 649.47 638.35"
/>
<path stroke="#6b8b95" vector-effect="non-scaling-stroke" d="
  M 154.02 708.47
  Q 163.13 736.38 188.96 751.83
  Q 192.73 754.09 197.13 755.63"
/>
<path stroke="#86979f" vector-effect="non-scaling-stroke" d="
  M 197.13 755.63
  Q 203.12 758.86 211.50 760.29
  C 216.06 761.07 220.46 761.75 225.21 761.75
  Q 262.37 761.77 299.55 761.45"
/>
<path stroke="#6b8b95" vector-effect="non-scaling-stroke" d="
  M 299.55 761.45
  L 390.80 762.09
  Q 392.42 762.10 390.92 761.49
  C 381.37 757.59 372.24 752.61 363.16 747.48
  C 308.58 716.63 268.15 667.90 245.18 609.67
  Q 245.00 609.21 244.51 609.21
  L 227.48 609.45"
/>
<path stroke="#86979f" vector-effect="non-scaling-stroke" d="
  M 227.48 609.45
  Q 224.36 609.10 220.50 609.70
  Q 182.12 615.64 161.24 647.76
  Q 155.78 656.15 152.06 670.17
  Q 151.71 671.47 151.50 673.28
  C 151.17 675.97 150.46 678.48 150.46 681.11
  Q 150.44 687.28 150.56 693.31
  A 2.38 2.34 -58.5 0 0 150.78 694.26
  Q 151.32 695.35 151.32 697.26
  Q 151.33 700.02 154.02 708.47"
/>
<path stroke="#e4f4f5" vector-effect="non-scaling-stroke" d="
  M 227.48 609.45
  Q 232.96 617.91 237.42 626.78
  Q 243.53 638.92 242.97 652.86
  Q 242.92 654.21 241.57 654.15
  Q 217.90 653.14 198.51 662.85
  Q 176.72 673.77 161.01 694.41
  Q 158.14 698.20 155.20 702.20
  A 3.08 3.08 0.0 0 0 154.72 704.88
  Q 155.55 707.77 154.02 708.47"
/>
<path stroke="#e4f4f5" vector-effect="non-scaling-stroke" d="
  M 299.55 761.45
  C 299.03 757.55 299.01 753.37 298.19 749.92
  Q 295.49 738.47 286.63 731.08
  C 283.46 728.43 279.08 726.41 275.16 724.62
  Q 274.12 724.15 273.66 723.11
  C 272.51 720.52 271.93 717.77 270.55 715.32
  C 252.44 683.09 204.16 691.16 194.43 725.47
  Q 190.31 740.02 197.13 755.63"
/>
<path stroke="#784628" vector-effect="non-scaling-stroke" d="
  M 474.02 663.49
  Q 473.90 685.49 474.03 707.58
  C 474.03 708.80 474.35 710.00 474.35 711.28
  Q 474.29 736.56 473.98 757.48
  A 0.90 0.89 0.3 0 0 474.89 758.39
  Q 477.72 758.34 480.53 758.83
  Q 482.52 759.16 484.50 759.48
  Q 491.02 760.51 497.50 761.39
  Q 499.95 761.72 502.79 761.68
  A 0.77 0.76 4.0 0 0 503.54 761.04
  Q 504.39 755.44 505.54 750.06
  Q 510.98 724.49 527.29 703.98
  Q 530.23 700.28 538.81 692.18"
/>
<path stroke="#836831" vector-effect="non-scaling-stroke" d="
  M 538.81 692.18
  L 548.23 684.84
  A 2.36 2.33 -19.1 0 0 549.13 683.02
  L 549.29 623.78
  A 0.76 0.75 0.0 0 0 548.53 623.03
  L 474.49 622.89
  A 0.45 0.45 0.0 0 0 474.03 623.34
  L 474.02 663.49"
/>
<path stroke="#ef801b" vector-effect="non-scaling-stroke" d="
  M 538.81 692.18
  L 510.79 681.40"
/>
<path stroke="#836831" vector-effect="non-scaling-stroke" d="
  M 510.79 681.40
  Q 512.21 673.19 506.91 669.23
  Q 503.29 666.53 499.11 667.29
  Q 494.78 668.08 491.85 672.37"
/>
<path stroke="#ef801b" vector-effect="non-scaling-stroke" d="
  M 491.85 672.37
  L 475.63 662.53
  Q 475.17 662.25 474.80 662.65
  L 474.02 663.49"
/>
<path stroke="#784628" vector-effect="non-scaling-stroke" d="
  M 491.85 672.37
  Q 490.20 676.93 491.12 680.79
  C 492.09 684.85 497.64 689.82 502.26 688.72
  Q 508.14 687.33 510.79 681.40"
/>
<path stroke="#186d7d" vector-effect="non-scaling-stroke" d="
  M 311.89 804.77
  Q 315.03 806.97 317.67 808.88
  Q 320.77 811.12 323.81 813.04
  C 373.45 844.54 430.18 862.42 488.79 867.38
  C 493.23 867.75 497.64 867.54 502.12 868.03
  Q 507.03 868.57 511.92 868.54
  C 517.85 868.50 523.80 868.81 529.65 868.12
  C 534.75 867.51 539.86 867.67 545.04 867.18
  Q 587.82 863.18 624.46 851.69
  Q 666.41 838.53 703.13 815.52
  Q 709.40 811.59 716.22 806.73
  Q 717.10 806.10 717.63 805.25
  Q 717.68 805.16 717.79 805.17
  Q 718.00 805.20 717.97 805.34
  Q 717.86 805.89 718.34 805.61
  Q 718.53 805.50 718.70 805.35
  Q 719.08 805.04 718.59 805.05
  Q 718.44 805.05 718.44 804.77
  Q 718.45 804.57 718.62 804.46
  Q 718.94 804.25 719.26 804.35
  Q 719.85 804.54 720.10 803.97
  Q 720.42 803.22 720.73 803.28"
/>
<path stroke="#10576a" vector-effect="non-scaling-stroke" d="
  M 720.73 803.28
  Q 721.67 804.16 721.76 803.02
  Q 721.80 802.56 722.26 802.59
  Q 723.10 802.66 723.32 801.80
  Q 723.48 801.17 724.11 801.35
  Q 724.32 801.40 724.50 801.28
  Q 724.79 801.08 724.44 801.08
  Q 724.22 801.08 724.20 800.87
  Q 724.18 800.73 724.25 800.60
  Q 724.49 800.20 724.87 800.01
  Q 725.03 799.93 725.04 800.11
  Q 725.05 800.24 725.00 800.37
  Q 724.70 801.18 725.43 800.73
  Q 727.51 799.45 728.51 797.42
  Q 728.71 797.01 729.13 797.17
  Q 730.32 797.62 731.07 796.37
  Q 731.40 795.81 730.75 795.88
  Q 730.70 795.89 730.67 795.84
  Q 730.26 795.26 730.96 795.41
  Q 732.02 795.62 732.38 794.58
  Q 732.47 794.35 732.69 794.24
  Q 733.00 794.08 733.02 794.27
  Q 733.08 794.94 733.65 794.53
  Q 735.08 793.51 736.13 792.56
  Q 737.36 791.45 735.71 791.50
  Q 715.03 792.09 697.75 792.15
  C 564.23 792.65 429.34 792.81 295.37 791.90
  A 0.33 0.32 -15.6 0 0 295.09 792.39
  Q 295.89 793.67 297.21 793.41
  Q 297.65 793.32 297.80 793.75
  Q 298.04 794.45 298.77 794.40
  Q 299.17 794.37 299.43 794.66
  Q 299.63 794.90 299.39 794.99
  Q 299.05 795.12 299.33 795.35
  Q 299.64 795.60 299.84 795.40
  Q 300.19 795.05 300.47 795.45
  Q 301.42 796.82 302.82 797.60
  Q 303.16 797.79 303.29 798.16
  Q 303.40 798.46 303.71 798.38
  Q 304.21 798.25 304.54 798.65
  Q 305.49 799.83 306.77 800.34
  Q 307.08 800.46 307.15 800.78
  Q 307.19 800.92 307.21 801.06
  Q 307.30 801.66 307.85 801.37
  Q 308.17 801.20 308.46 801.52
  Q 310.63 803.93 311.89 804.77"
/>
<path stroke="#1c96a8" vector-effect="non-scaling-stroke" d="
  M 720.73 803.28
  Q 721.15 803.24 721.16 802.78
  Q 721.18 802.17 720.61 802.38
  C 717.12 803.62 713.69 805.06 710.20 805.93
  Q 670.08 815.97 649.36 819.41
  Q 619.44 824.37 588.50 826.14
  Q 577.30 826.78 565.87 827.38"
/>
<path stroke="#89c0ca" vector-effect="non-scaling-stroke" d="
  M 565.87 827.38
  Q 561.11 819.88 553.65 824.86"
/>
<path stroke="#1c96a8" vector-effect="non-scaling-stroke" d="
  M 553.65 824.86
  Q 535.66 822.80 518.64 817.84
  C 516.26 817.15 512.55 816.63 510.61 817.09
  Q 495.55 820.65 480.11 824.00"
/>
<path stroke="#89c0ca" vector-effect="non-scaling-stroke" d="
  M 480.11 824.00
  Q 477.95 819.65 473.93 816.97
  C 468.76 813.54 463.02 813.47 457.86 816.89
  Q 452.12 820.71 451.74 827.55"
/>
<path stroke="#1c96a8" vector-effect="non-scaling-stroke" d="
  M 451.74 827.55
  Q 446.95 825.76 441.52 825.88
  Q 437.90 825.97 435.99 825.78
  C 431.35 825.32 426.09 825.03 422.09 824.58
  Q 378.66 819.67 336.25 809.03
  Q 330.71 807.64 321.75 806.03
  Q 314.90 804.80 311.89 804.77"
/>
<path stroke="#92d6dd" vector-effect="non-scaling-stroke" d="
  M 451.74 827.55
  Q 451.56 833.23 453.27 836.51
  C 458.23 846.01 472.83 847.32 478.85 838.01
  Q 482.55 832.27 480.11 824.00"
/>
<path stroke="#92d6dd" vector-effect="non-scaling-stroke" d="
  M 553.65 824.86
  Q 550.10 829.34 552.40 833.61
  Q 554.89 838.22 559.52 837.70
  Q 568.01 836.76 565.87 827.38"
/>
<path stroke="#a2e4ea" vector-effect="non-scaling-stroke" d="
  M 500.76 201.43
  A 15.82 15.82 0.0 0 0 484.94 185.61
  A 15.82 15.82 0.0 0 0 469.12 201.43
  A 15.82 15.82 0.0 0 0 484.94 217.25
  A 15.82 15.82 0.0 0 0 500.76 201.43"
/>
<path stroke="#a2e4ea" vector-effect="non-scaling-stroke" d="
  M 429.4931 214.2974
  A 5.14 4.61 81.8 0 0 433.3229 208.5525
  A 5.14 4.61 81.8 0 0 428.0269 204.1226
  A 5.14 4.61 81.8 0 0 424.1971 209.8675
  A 5.14 4.61 81.8 0 0 429.4931 214.2974"
/>
<path stroke="#a2e4ea" vector-effect="non-scaling-stroke" d="
  M 760.2298 302.5152
  A 8.78 8.78 0.0 0 0 750.9302 294.2876
  L 749.2733 294.3889
  A 8.78 8.78 0.0 0 0 741.0457 303.6886
  L 741.1702 305.7248
  A 8.78 8.78 0.0 0 0 750.4698 313.9524
  L 752.1267 313.8511
  A 8.78 8.78 0.0 0 0 760.3543 304.5514
  L 760.2298 302.5152"
/>
<path stroke="#a2e4ea" vector-effect="non-scaling-stroke" d="
  M 804.0121 365.3459
  A 8.11 8.11 0.0 0 0 795.1621 358.0505
  L 793.4899 358.2115
  A 8.11 8.11 0.0 0 0 786.1945 367.0615
  L 786.3479 368.6541
  A 8.11 8.11 0.0 0 0 795.1979 375.9495
  L 796.8701 375.7885
  A 8.11 8.11 0.0 0 0 804.1655 366.9385
  L 804.0121 365.3459"
/>
<path stroke="#92d6dd" vector-effect="non-scaling-stroke" d="
  M 202.7541 461.5335
  A 9.96 9.59 63.5 0 0 206.8924 448.3410
  A 9.96 9.59 63.5 0 0 193.8659 443.7065
  A 9.96 9.59 63.5 0 0 189.7276 456.8990
  A 9.96 9.59 63.5 0 0 202.7541 461.5335"
/>
<path stroke="#92d6dd" vector-effect="non-scaling-stroke" d="
  M 200.1149 512.0003
  A 4.82 4.82 0.0 0 0 194.8100 507.7198
  L 193.8356 507.8239
  A 4.82 4.82 0.0 0 0 189.5551 513.1288
  L 189.7251 514.7197
  A 4.82 4.82 0.0 0 0 195.0300 519.0002
  L 196.0044 518.8961
  A 4.82 4.82 0.0 0 0 200.2849 513.5912
  L 200.1149 512.0003"
/>
<path stroke="#92d6dd" vector-effect="non-scaling-stroke" d="
  M 202.76 555.60
  A 4.82 4.82 0.0 0 0 197.94 550.78
  A 4.82 4.82 0.0 0 0 193.12 555.60
  A 4.82 4.82 0.0 0 0 197.94 560.42
  A 4.82 4.82 0.0 0 0 202.76 555.60"
/>
<path stroke="#92d6dd" vector-effect="non-scaling-stroke" d="
  M 826.5072 492.1092
  A 5.09 4.88 81.9 0 0 830.6213 486.3824
  A 5.09 4.88 81.9 0 0 825.0728 482.0308
  A 5.09 4.88 81.9 0 0 820.9587 487.7576
  A 5.09 4.88 81.9 0 0 826.5072 492.1092"
/>
</g>
<path fill="#0c2e3e" d="
  M 152.01 610.38
  C 152.02 609.08 152.10 607.75 151.78 606.46
  Q 142.58 569.04 141.19 541.24
  Q 140.18 520.99 140.78 492.45
  Q 141.02 481.50 142.03 472.60
  Q 144.17 453.89 147.99 436.37
  Q 150.28 425.82 153.26 415.00
  Q 156.83 402.03 162.41 388.20
  C 163.06 386.58 163.20 385.05 162.93 383.36
  A 1.94 1.92 -81.4 0 0 161.90 381.95
  Q 153.68 377.72 145.75 374.05
  Q 144.64 373.53 143.39 372.98
  Q 138.78 370.95 134.06 368.58
  Q 131.27 367.18 128.10 365.95
  Q 124.84 364.69 122.05 362.82
  Q 120.61 361.85 119.22 361.09
  Q 118.82 360.88 118.64 360.47
  C 117.06 356.80 116.94 351.70 120.09 348.84
  Q 121.52 347.54 122.89 346.10
  C 123.55 345.41 123.41 344.61 124.03 343.99
  Q 126.37 341.63 128.83 339.15
  C 129.57 338.40 129.46 337.61 130.21 336.83
  Q 132.79 334.13 135.79 331.24
  C 136.56 330.50 136.40 329.59 137.14 328.85
  Q 141.50 324.51 145.86 320.14
  C 146.57 319.42 146.41 318.57 147.07 317.91
  Q 158.66 306.36 170.56 294.43
  C 171.49 293.50 172.54 293.51 173.42 292.61
  Q 176.60 289.37 179.89 286.12
  C 180.56 285.47 181.39 285.58 182.00 284.97
  C 183.60 283.39 185.34 281.19 187.35 280.29
  C 188.32 279.85 189.00 278.86 189.84 278.19
  Q 206.61 264.98 222.98 254.55
  C 224.08 253.85 225.25 253.49 226.29 252.67
  Q 228.08 251.26 230.20 250.41
  C 231.41 249.92 232.02 248.77 233.34 248.27
  Q 235.49 247.45 237.25 246.30
  Q 239.98 244.52 240.97 244.02
  Q 247.48 240.72 254.15 237.43
  C 257.72 235.67 261.53 234.30 265.27 232.82
  Q 266.60 232.30 267.49 231.48
  C 268.48 230.59 269.49 230.42 270.44 229.52
  Q 271.71 228.29 274.27 226.32
  Q 291.39 213.10 306.47 203.48
  Q 308.05 202.48 309.63 201.70
  C 311.15 200.96 312.06 199.79 313.61 199.18
  C 315.68 198.38 316.96 196.91 319.02 196.02
  Q 320.86 195.23 322.45 194.17
  Q 324.74 192.65 325.75 192.14
  Q 331.37 189.27 336.80 186.60
  Q 339.33 185.35 341.86 183.64
  C 344.18 182.06 346.87 181.56 349.32 180.33
  Q 353.90 178.02 358.11 175.98
  C 359.19 175.46 360.31 175.44 361.36 174.83
  Q 363.49 173.58 365.80 172.77
  C 368.81 171.72 371.40 170.10 374.43 169.18
  Q 377.10 168.37 379.73 167.22
  Q 382.42 166.04 385.02 165.10
  Q 395.03 161.45 405.48 158.25
  Q 443.31 146.66 482.59 142.88
  Q 492.70 141.91 503.13 141.70
  Q 524.00 141.27 541.42 142.21
  Q 560.62 143.26 581.78 147.02
  Q 611.61 152.34 640.50 161.79
  Q 643.12 162.65 645.57 163.75
  C 647.80 164.75 650.19 165.27 652.44 166.24
  Q 656.04 167.79 659.70 169.16
  Q 662.22 170.11 664.29 171.18
  C 666.29 172.22 668.42 172.62 670.34 173.66
  Q 675.13 176.26 678.61 177.14
  Q 684.79 178.70 691.35 179.73
  Q 697.35 180.68 704.16 182.14
  Q 727.03 187.03 747.93 192.59
  Q 750.36 193.24 752.39 195.32
  C 753.74 196.72 753.22 198.20 754.35 199.51
  A 0.74 0.73 41.3 0 1 754.41 200.39
  C 753.48 201.80 753.50 203.51 752.87 205.15
  Q 750.29 211.86 747.08 217.83
  A 1.18 1.18 0.0 0 0 747.25 219.19
  Q 749.79 221.94 752.06 223.96
  C 752.73 224.55 753.48 224.51 754.13 225.15
  Q 756.25 227.22 758.43 229.44
  C 759.39 230.42 760.49 230.47 761.40 231.39
  Q 764.48 234.48 767.70 237.70
  C 768.48 238.48 769.47 238.46 770.21 239.20
  Q 781.98 250.99 793.74 262.73
  C 794.53 263.52 794.42 264.44 795.17 265.18
  Q 797.85 267.85 800.71 270.69
  C 801.52 271.50 801.43 272.45 802.21 273.22
  Q 804.51 275.49 806.78 277.78
  C 807.59 278.60 807.45 279.59 808.36 280.34
  Q 809.51 281.28 810.24 282.52
  Q 810.88 283.62 811.77 284.66
  Q 814.16 287.44 816.65 290.77
  Q 823.72 300.22 832.50 313.51
  Q 833.55 315.08 834.17 316.30
  Q 834.78 317.52 835.55 318.55
  C 836.82 320.25 837.44 322.14 838.72 323.84
  Q 839.84 325.33 840.62 327.23
  C 841.05 328.29 841.99 328.80 842.46 329.88
  Q 843.99 333.36 846.04 336.71
  Q 846.51 337.48 846.94 338.23
  Q 849.70 343.12 852.08 348.20
  C 852.59 349.28 852.61 350.42 853.20 351.48
  Q 855.97 356.46 857.77 361.15
  Q 859.65 366.05 861.49 370.09
  Q 862.42 372.14 863.21 374.43
  Q 863.99 376.70 864.84 378.97
  Q 870.54 394.28 875.86 413.82
  Q 882.93 439.77 886.15 472.03
  Q 887.03 480.85 887.26 491.98
  Q 887.75 515.03 886.81 532.29
  Q 885.67 553.22 881.33 575.36
  C 880.93 577.41 880.99 579.35 880.99 581.41
  A 1.36 1.33 -67.9 0 0 881.38 582.36
  Q 885.74 586.80 890.13 591.08
  Q 891.68 592.58 892.75 594.37
  Q 893.78 596.07 895.51 597.50
  C 897.24 598.92 897.64 600.78 899.22 602.35
  Q 900.02 603.14 900.76 604.30
  Q 904.02 609.37 907.73 614.88
  Q 911.12 619.91 915.68 631.48
  Q 921.40 646.03 922.75 659.38
  Q 924.02 672.03 922.98 687.38
  Q 922.04 701.22 916.85 715.09
  Q 913.87 723.04 908.37 733.17
  Q 907.78 734.26 906.95 735.12
  Q 906.63 735.44 906.49 735.87
  Q 905.80 737.99 904.43 739.49
  C 902.87 741.21 901.71 743.19 900.45 745.13
  C 899.27 746.93 897.48 748.10 896.58 749.87
  Q 895.99 751.05 895.08 751.94
  Q 890.23 756.71 885.36 761.70
  Q 884.23 762.85 882.85 763.59
  C 880.99 764.59 879.92 766.36 877.98 767.56
  Q 876.79 768.29 875.65 769.25
  Q 873.47 771.08 870.83 772.52
  Q 868.79 773.62 866.88 774.90
  C 864.83 776.28 862.13 776.99 860.34 778.62
  C 859.28 779.59 857.89 779.54 856.59 780.20
  C 854.13 781.45 851.77 782.72 849.11 783.63
  Q 843.73 785.49 839.17 786.88
  Q 826.72 790.65 812.04 791.05
  Q 793.69 791.54 774.55 791.98
  A 1.54 1.52 16.9 0 0 773.35 792.61
  C 772.17 794.25 770.57 794.42 769.22 795.76
  C 767.00 797.98 764.53 801.09 761.79 802.64
  C 759.56 803.91 758.20 806.19 755.93 807.56
  C 754.26 808.57 753.03 810.08 751.42 811.25
  Q 749.13 812.91 746.92 814.72
  Q 737.05 822.79 717.29 835.64
  Q 715.80 836.61 714.29 837.34
  C 712.83 838.05 711.98 839.21 710.49 839.77
  C 708.35 840.58 707.03 842.15 704.97 843.02
  Q 702.99 843.84 701.17 845.06
  Q 699.49 846.19 697.57 847.18
  Q 687.12 852.56 677.88 856.94
  C 676.79 857.45 675.64 857.60 674.60 858.19
  C 671.74 859.83 668.70 860.62 665.80 862.09
  C 662.72 863.64 659.42 864.41 656.29 865.77
  Q 653.81 866.85 650.98 867.88
  Q 643.72 870.54 635.46 873.22
  C 626.44 876.13 617.40 878.52 608.33 880.74
  Q 580.70 887.51 554.23 890.12
  Q 538.70 891.65 518.21 892.29
  Q 505.88 892.68 478.92 890.22
  Q 445.65 887.18 411.85 877.84
  Q 394.50 873.05 387.07 870.25
  Q 384.96 869.46 382.89 868.74
  Q 379.99 867.72 377.30 866.59
  C 374.24 865.30 371.06 864.56 368.11 863.06
  C 365.23 861.61 362.26 860.81 359.42 859.22
  C 358.19 858.53 356.78 858.32 355.48 857.69
  Q 343.46 851.76 330.52 845.27
  Q 328.73 844.37 327.00 843.19
  Q 325.29 842.01 323.24 841.10
  C 321.32 840.24 319.70 838.91 317.87 837.85
  Q 302.04 828.71 280.98 812.24
  Q 278.98 810.68 277.01 808.95
  Q 275.14 807.31 273.23 805.92
  Q 271.19 804.44 269.38 802.38
  C 268.58 801.46 267.34 801.42 266.41 800.44
  Q 263.28 797.13 260.15 794.25
  Q 257.70 792.00 254.37 791.91
  Q 239.96 791.54 224.02 791.17
  Q 218.69 791.05 213.81 790.53
  Q 206.29 789.73 203.51 789.07
  Q 197.86 787.72 190.54 785.41
  Q 186.45 784.12 180.30 781.31
  Q 179.16 780.79 178.06 780.41
  C 176.81 779.98 176.24 779.10 175.06 778.53
  Q 167.89 775.05 162.39 770.44
  C 161.41 769.62 160.38 769.34 159.50 768.47
  Q 156.61 765.60 153.85 762.91
  Q 153.45 762.52 152.91 762.48
  Q 152.54 762.45 152.52 762.09
  Q 152.49 761.56 152.12 761.18
  Q 148.66 757.65 145.01 753.99
  C 143.62 752.60 143.20 751.00 141.75 749.69
  Q 141.05 749.06 140.51 748.16
  Q 138.78 745.29 136.89 742.63
  Q 135.01 739.97 133.54 737.08
  Q 131.73 733.50 129.85 729.75
  Q 127.71 725.48 126.50 721.59
  C 125.31 717.77 123.79 713.99 122.99 710.04
  Q 118.40 687.48 122.30 664.48
  C 122.87 661.10 124.09 657.73 124.97 654.33
  Q 125.49 652.30 126.39 650.13
  Q 131.38 638.05 134.61 633.39
  Q 135.88 631.56 136.65 629.54
  A 1.79 1.74 -9.8 0 1 137.21 628.77
  Q 138.92 627.45 139.65 625.64
  Q 139.86 625.10 140.30 624.72
  Q 141.11 624.03 141.45 623.08
  C 142.37 620.53 145.90 619.31 146.60 616.69
  Q 146.72 616.25 147.05 615.92
  Q 149.40 613.62 151.56 611.44
  Q 152.00 611.00 152.01 610.38
  Z
  M 491.97 166.24
  L 483.37 166.39
  Q 479.41 166.27 480.97 167.27
  Q 477.38 167.46 473.65 167.60
  Q 472.55 167.64 471.50 168.08
  C 470.00 168.71 467.98 168.46 466.30 168.71
  Q 436.63 173.05 407.74 182.55
  Q 407.15 182.74 406.83 183.00
  A 0.47 0.46 19.3 0 1 406.70 183.06
  L 401.13 184.35
  Q 400.58 184.47 400.22 184.91
  Q 399.60 185.69 398.71 185.57
  Q 398.21 185.50 397.88 185.89
  Q 397.17 186.74 395.95 186.55
  A 1.27 1.26 -70.9 0 0 394.66 187.18
  Q 394.25 187.89 393.61 187.54
  Q 393.01 187.20 392.37 187.50
  Q 392.00 187.68 392.16 187.86
  Q 392.23 187.93 392.32 187.89
  Q 392.53 187.79 392.66 187.98
  A 0.30 0.30 0.0 0 1 392.40 188.44
  Q 390.60 188.33 389.42 189.29
  Q 389.06 189.58 388.60 189.55
  Q 387.69 189.48 386.94 190.02
  Q 385.63 190.97 383.99 191.37
  Q 382.85 191.64 381.77 192.15
  Q 380.22 192.88 378.74 193.73
  Q 378.67 193.58 378.65 193.46
  Q 378.62 193.24 378.40 193.25
  Q 375.16 193.35 377.78 194.08
  Q 377.25 194.57 376.23 194.62
  Q 375.74 194.64 375.31 194.86
  L 369.70 197.69
  L 369.74 197.36
  Q 369.79 196.98 369.42 197.05
  Q 366.77 197.52 368.82 198.13
  Q 367.39 198.38 365.72 199.20
  Q 356.22 203.83 346.32 208.87
  C 345.50 209.28 345.09 209.96 344.19 210.41
  C 341.41 211.82 338.14 213.18 335.54 215.12
  Q 334.16 216.14 332.45 216.75
  A 1.85 1.79 6.6 0 0 331.56 217.43
  Q 330.73 218.65 329.40 218.72
  Q 328.99 218.75 328.74 219.06
  C 327.88 220.10 326.67 219.53 325.67 220.36
  Q 324.89 221.00 325.90 220.94
  C 334.57 220.40 343.18 220.25 352.01 220.94
  Q 360.15 221.57 363.53 221.98
  C 407.02 227.21 448.34 246.50 478.70 278.41
  A 0.60 0.60 0.0 0 0 479.67 278.26
  Q 491.49 254.48 508.04 235.30
  Q 539.25 199.14 585.09 184.12
  Q 596.20 180.47 607.28 177.97
  Q 608.26 177.75 607.30 177.47
  Q 585.44 171.07 562.89 168.01
  C 559.61 167.56 556.42 167.56 553.24 166.98
  C 549.13 166.24 545.18 166.85 541.12 166.03
  Q 538.59 165.51 535.82 165.48
  Q 515.86 165.25 496.02 165.43
  Q 495.19 165.17 494.24 165.26
  Q 490.96 165.58 491.97 166.24
  Z
  M 524.79 264.13
  Q 509.81 283.70 501.76 305.87
  Q 499.80 311.28 503.21 306.65
  Q 514.78 290.94 531.18 276.26
  Q 538.05 270.11 548.96 262.75
  C 550.40 261.78 551.90 261.20 553.34 260.29
  A 0.64 0.64 0.0 0 0 553.64 259.83
  Q 553.67 259.68 553.73 259.52
  L 554.21 259.32
  Q 554.26 259.46 554.30 259.60
  Q 554.39 259.88 554.69 259.84
  Q 556.51 259.56 555.45 258.79
  Q 559.75 257.80 563.98 258.31
  Q 566.51 258.61 568.48 260.35
  Q 571.32 262.85 573.28 265.88
  Q 574.84 271.48 573.63 276.74
  Q 573.16 278.76 571.88 280.16
  Q 570.23 281.95 568.40 283.24
  Q 560.89 288.52 555.89 293.09
  Q 544.21 303.76 533.11 318.72
  C 532.73 319.24 532.24 319.56 531.82 320.03
  Q 530.38 321.69 532.35 320.71
  Q 567.48 303.12 607.21 303.13
  Q 610.79 303.13 623.65 303.72
  Q 626.21 303.84 628.33 304.16
  C 631.43 304.63 635.91 305.41 638.45 304.08
  Q 642.93 301.74 647.04 299.00
  Q 676.15 279.52 696.95 248.44
  Q 701.66 241.40 704.06 236.75
  Q 711.09 226.51 716.72 214.48
  L 716.71 213.40
  Q 716.71 212.96 716.29 212.85
  Q 708.68 210.87 701.15 208.97
  Q 692.46 206.77 682.39 205.13
  Q 679.93 204.73 677.80 204.56
  C 673.90 204.25 670.32 203.39 666.36 203.40
  C 662.57 203.41 659.00 202.68 655.20 202.65
  Q 647.40 202.56 640.09 202.72
  Q 639.74 202.73 639.45 202.93
  Q 638.99 203.26 638.43 203.28
  L 629.16 203.59
  Q 628.92 203.60 628.75 203.77
  Q 628.65 203.88 628.53 203.97
  Q 628.27 204.18 627.93 204.21
  Q 624.96 204.51 622.29 204.56
  Q 621.85 204.57 621.61 204.94
  Q 621.45 205.17 621.17 205.21
  C 619.43 205.44 617.28 205.24 615.70 205.98
  C 614.09 206.73 612.45 206.36 610.70 207.12
  C 609.37 207.69 608.05 207.27 606.79 208.09
  Q 606.17 208.51 605.42 208.46
  Q 604.43 208.40 603.64 208.94
  Q 603.30 209.16 602.90 209.25
  Q 600.59 209.72 596.88 210.96
  Q 589.74 213.35 582.70 216.54
  Q 582.05 216.84 581.52 217.25
  A 1.14 1.13 -61.9 0 1 580.78 217.48
  Q 580.07 217.46 579.76 218.05
  A 0.94 0.93 14.6 0 1 578.92 218.54
  Q 578.78 218.54 578.63 218.53
  Q 578.09 218.52 577.80 218.98
  Q 577.38 219.65 576.62 219.50
  A 0.64 0.63 -70.9 0 0 575.92 219.85
  Q 575.61 220.50 574.88 220.50
  A 1.08 0.99 26.7 0 0 574.32 220.66
  Q 572.41 221.78 570.38 222.85
  Q 568.50 223.85 566.71 225.02
  Q 561.74 228.27 556.87 231.61
  C 555.21 232.75 553.90 234.15 552.28 235.30
  Q 550.07 236.87 548.75 238.29
  C 546.74 240.44 544.36 241.82 542.31 243.82
  Q 532.75 253.16 524.79 264.13
  Z
  M 789.11 454.26
  Q 794.52 476.92 794.86 500.89
  A 1.22 1.21 8.7 0 0 795.70 502.03
  Q 813.04 507.69 828.81 517.31
  Q 845.75 527.63 860.18 545.41
  Q 860.32 545.57 860.51 545.65
  Q 860.82 545.77 860.80 546.12
  Q 860.75 546.85 861.30 547.36
  Q 861.76 547.79 861.87 547.16
  Q 862.48 543.68 862.53 540.69
  C 862.59 537.22 863.60 534.14 863.56 530.55
  Q 863.52 526.47 863.95 522.62
  Q 865.41 519.02 864.60 514.61
  L 864.59 499.38
  Q 865.51 492.77 863.80 487.07
  Q 863.91 480.63 862.99 473.97
  Q 862.73 472.07 862.07 466.75
  Q 858.70 439.68 852.50 416.04
  Q 838.66 365.64 810.59 323.41
  Q 779.71 276.95 736.56 241.53
  A 0.55 0.55 0.0 0 0 735.68 241.80
  C 735.57 242.20 735.56 242.53 735.36 242.90
  Q 731.96 249.48 728.36 255.71
  Q 708.44 290.12 678.72 315.23
  Q 677.95 315.88 677.06 316.32
  A 0.44 0.44 0.0 0 0 677.07 317.11
  Q 721.76 338.04 751.25 376.50
  C 769.47 400.25 782.14 424.98 789.11 454.26
  Z
  M 309.45 253.54
  Q 307.65 253.46 307.57 254.23
  L 299.08 255.56
  Q 298.54 255.65 298.05 255.89
  Q 296.72 256.55 295.10 256.55
  A 2.03 2.02 -59.1 0 0 294.07 256.81
  Q 292.83 257.49 291.32 257.52
  Q 290.75 257.53 290.24 257.80
  C 288.88 258.50 287.31 258.60 285.79 259.06
  Q 266.49 264.90 248.75 274.50
  Q 242.92 277.66 237.22 281.07
  L 235.16 282.46
  Q 226.02 288.47 221.76 291.46
  Q 216.00 295.50 209.03 301.31
  Q 183.70 321.95 162.49 346.49
  A 0.80 0.80 0.0 0 0 162.70 347.71
  Q 173.14 353.66 184.14 358.31
  C 201.32 365.59 218.63 371.59 236.72 374.94
  Q 252.50 377.86 269.20 378.65
  Q 271.21 378.74 272.38 377.14
  Q 302.30 336.18 349.14 316.00
  Q 353.08 314.16 355.25 313.51
  Q 369.03 309.40 383.69 306.24
  Q 401.24 303.72 416.75 304.92
  Q 425.46 305.60 428.18 305.71
  Q 429.63 306.83 430.79 306.45
  Q 433.20 306.33 435.41 307.00
  C 437.01 307.48 438.48 307.32 439.90 307.83
  Q 441.53 308.40 443.18 308.71
  Q 445.68 309.17 448.45 309.75
  L 470.97 318.00
  Q 471.71 318.27 471.26 317.62
  Q 438.36 270.45 382.00 256.40
  Q 373.19 254.21 364.54 253.20
  C 363.58 253.09 362.54 252.56 361.64 252.57
  Q 357.59 252.59 354.02 252.17
  Q 348.35 251.52 346.43 251.50
  C 339.53 251.46 332.82 251.24 326.10 252.08
  Q 322.81 252.49 319.20 252.55
  Q 317.42 252.58 314.37 253.19
  Q 311.99 253.67 309.45 253.54
  Z
  M 330.19 362.82
  Q 329.57 362.30 328.98 362.77
  Q 317.18 372.19 308.63 381.80
  Q 307.28 383.31 306.04 384.64
  Q 304.07 386.75 302.86 388.58
  Q 301.92 390.00 300.77 391.12
  Q 299.50 392.36 298.63 393.82
  C 297.62 395.53 296.16 396.54 295.37 398.35
  A 2.17 2.12 -7.1 0 1 294.66 399.24
  Q 293.76 399.91 293.54 400.95
  Q 293.42 401.47 293.05 401.85
  L 291.98 402.95
  Q 291.64 403.30 291.56 403.79
  C 291.33 405.21 289.88 405.44 289.59 406.79
  Q 289.48 407.27 289.15 407.65
  Q 287.45 409.58 286.40 412.19
  C 286.11 412.91 285.61 413.17 285.27 413.78
  Q 283.22 417.39 281.27 421.41
  Q 281.10 421.76 280.77 421.96
  Q 280.31 422.24 280.52 422.74
  Q 264.63 454.33 260.57 489.52
  C 260.13 493.28 259.50 496.79 259.39 500.51
  Q 258.64 525.04 259.64 537.59
  Q 262.45 573.00 278.19 609.19
  C 293.19 643.69 316.56 675.04 346.12 699.00
  Q 385.90 731.25 434.80 747.38
  Q 435.20 747.51 435.64 747.53
  Q 436.26 747.56 436.60 748.02
  Q 436.89 748.40 437.36 748.46
  L 438.81 748.64
  Q 439.31 748.71 439.72 749.01
  Q 440.62 749.68 441.76 749.59
  Q 442.27 749.54 442.66 749.86
  Q 443.51 750.56 444.61 750.55
  Q 445.07 750.55 445.48 750.76
  L 447.40 751.75
  A 0.39 0.39 0.0 0 0 447.97 751.40
  L 447.99 644.02
  Q 448.00 632.69 448.12 621.50
  Q 448.17 616.98 448.60 613.75
  C 449.19 609.20 452.43 604.72 456.44 602.18
  Q 462.73 598.18 469.75 598.11
  Q 503.98 597.76 550.37 598.12
  Q 556.24 598.16 560.74 599.66
  C 566.70 601.65 572.67 606.66 574.20 613.01
  Q 574.91 615.99 574.93 619.14
  Q 575.03 643.90 574.95 670.26
  Q 574.95 671.02 575.68 670.81
  Q 590.97 666.41 604.99 666.55
  Q 612.37 666.63 621.75 667.61
  Q 622.44 667.69 622.27 667.02
  Q 620.50 659.94 619.58 652.78
  Q 618.62 645.29 618.43 636.02
  Q 617.90 610.31 626.91 586.27
  A 1.20 1.19 29.4 0 0 626.53 584.92
  L 617.98 578.27
  L 513.33 498.03
  A 1.68 1.67 45.1 0 0 511.31 498.02
  L 457.29 539.13
  L 392.33 589.68
  Q 385.93 595.41 383.47 596.15
  Q 377.58 597.93 371.70 596.59
  Q 370.52 596.32 369.50 595.61
  Q 368.52 594.92 367.50 594.30
  Q 364.31 592.34 363.53 588.23
  Q 360.90 574.26 374.87 566.82
  L 430.02 524.32
  Q 463.73 498.46 497.28 472.27
  Q 499.55 470.50 506.12 466.83
  Q 509.63 464.87 511.99 464.91
  Q 515.25 464.96 518.19 466.82
  Q 522.55 469.57 525.66 471.88
  Q 542.45 484.32 558.84 498.01
  A 0.52 0.52 0.0 0 0 559.64 497.86
  Q 559.88 497.42 559.90 496.95
  Q 560.26 487.77 560.07 478.51
  Q 559.94 471.47 565.88 466.48
  C 569.35 463.57 573.71 463.51 577.94 464.33
  C 586.63 466.01 588.79 473.44 588.78 481.20
  Q 588.78 500.44 588.52 518.12
  Q 588.49 520.18 590.06 521.49
  Q 592.24 523.32 594.18 524.84
  Q 617.04 542.84 639.68 559.84
  A 0.67 0.66 -54.8 0 0 640.63 559.67
  Q 668.98 516.58 718.61 501.46
  Q 740.82 495.34 764.19 496.72
  Q 764.84 496.76 764.78 496.11
  C 764.46 492.43 764.61 488.81 764.20 485.08
  Q 758.40 432.13 723.95 391.02
  C 698.87 361.07 664.15 340.04 625.25 334.84
  C 622.18 334.43 619.21 334.57 616.15 334.16
  Q 612.66 333.68 609.49 333.69
  C 606.04 333.69 602.50 333.50 599.09 334.06
  C 595.83 334.61 592.63 334.41 589.29 334.87
  Q 567.93 337.81 547.73 346.69
  Q 529.94 354.51 515.72 364.26
  Q 513.10 366.05 510.57 367.69
  C 509.41 368.44 508.63 369.51 507.49 370.16
  C 505.11 371.51 503.32 373.54 500.93 374.94
  A 0.93 0.93 0.0 0 1 499.80 374.80
  C 497.50 372.50 494.87 369.49 492.13 367.67
  C 490.53 366.60 489.23 365.15 487.72 363.94
  Q 461.66 342.93 428.21 337.46
  Q 425.43 337.01 417.29 336.21
  Q 409.57 335.45 403.42 335.77
  Q 398.08 336.05 392.40 336.61
  Q 386.64 337.19 381.26 338.44
  Q 355.14 344.52 332.70 360.48
  Q 331.05 361.66 330.19 362.82
  Z
  M 163.39 509.14
  Q 163.59 517.23 163.37 524.89
  Q 163.29 527.66 163.75 530.84
  C 164.44 535.66 164.47 540.67 164.91 545.37
  Q 167.16 568.93 173.34 592.98
  Q 173.63 594.12 174.67 593.56
  C 189.40 585.49 205.84 580.11 222.68 578.60
  Q 228.52 578.08 234.16 577.67
  Q 234.97 577.61 234.79 576.81
  Q 231.71 563.31 230.04 550.67
  C 229.66 547.78 229.64 544.92 229.16 542.00
  Q 228.66 538.96 228.57 535.58
  Q 227.96 513.66 228.92 499.19
  Q 229.74 486.88 232.23 473.09
  Q 237.98 441.17 251.65 412.47
  A 1.32 1.31 -3.8 0 1 252.12 411.94
  Q 252.57 411.64 252.77 411.16
  Q 253.12 410.31 252.20 410.34
  Q 250.38 410.41 248.01 409.83
  C 244.78 409.04 240.30 408.76 236.66 408.20
  Q 210.36 404.13 185.90 393.37
  A 0.61 0.61 0.0 0 0 185.08 393.71
  Q 165.62 444.46 163.44 499.00
  Q 163.26 503.51 163.39 509.14
  Z
  M 649.47 638.35
  Q 649.05 643.20 650.72 651.55
  Q 653.06 663.27 656.80 672.47
  Q 658.43 676.47 659.66 681.21
  Q 655.86 685.45 654.30 687.55
  Q 649.71 693.74 647.22 701.01
  C 646.45 703.26 646.30 705.69 645.81 708.08
  A 1.06 1.05 -67.3 0 1 644.20 708.75
  Q 630.17 699.42 614.16 697.41
  Q 603.40 696.05 593.85 697.79
  Q 568.91 702.31 552.78 721.49
  Q 538.22 738.79 536.00 761.71
  A 0.15 0.15 0.0 0 0 536.15 761.88
  Q 668.36 761.46 800.63 761.86
  Q 811.58 761.89 819.47 760.86
  C 844.89 757.53 866.83 742.56 880.74 721.11
  C 892.93 702.32 897.76 679.07 892.76 657.18
  Q 886.72 630.74 867.04 612.07
  C 864.09 609.26 860.74 606.98 857.55 604.51
  Q 856.62 603.79 856.34 602.65
  Q 851.57 583.10 838.60 566.75
  Q 831.08 557.27 822.12 550.24
  Q 798.14 531.42 767.67 527.83
  C 762.89 527.27 758.17 527.40 753.40 527.37
  Q 748.31 527.34 743.08 528.00
  Q 714.63 531.59 690.89 549.65
  Q 688.84 551.20 686.86 553.04
  Q 684.91 554.85 682.91 556.45
  Q 679.33 559.32 676.69 562.84
  Q 675.05 565.03 673.02 566.95
  C 671.82 568.07 671.40 569.49 670.23 570.69
  Q 669.11 571.83 668.34 573.19
  Q 667.41 574.81 666.03 576.17
  Q 665.68 576.52 666.12 576.75
  Q 666.27 576.83 666.45 576.88
  Q 667.15 577.08 666.47 577.35
  Q 666.26 577.43 666.08 577.31
  Q 665.62 577.00 665.32 577.48
  Q 663.87 579.82 663.58 580.51
  Q 663.13 581.58 662.69 582.19
  Q 661.69 583.57 661.67 583.62
  Q 652.92 600.69 650.83 614.59
  Q 650.46 617.03 649.93 619.60
  Q 649.47 621.89 649.38 624.19
  Q 649.13 630.60 649.47 638.35
  Z
  M 154.02 708.47
  Q 163.13 736.38 188.96 751.83
  Q 192.73 754.09 197.13 755.63
  Q 203.12 758.86 211.50 760.29
  C 216.06 761.07 220.46 761.75 225.21 761.75
  Q 262.37 761.77 299.55 761.45
  L 390.80 762.09
  Q 392.42 762.10 390.92 761.49
  C 381.37 757.59 372.24 752.61 363.16 747.48
  C 308.58 716.63 268.15 667.90 245.18 609.67
  Q 245.00 609.21 244.51 609.21
  L 227.48 609.45
  Q 224.36 609.10 220.50 609.70
  Q 182.12 615.64 161.24 647.76
  Q 155.78 656.15 152.06 670.17
  Q 151.71 671.47 151.50 673.28
  C 151.17 675.97 150.46 678.48 150.46 681.11
  Q 150.44 687.28 150.56 693.31
  A 2.38 2.34 -58.5 0 0 150.78 694.26
  Q 151.32 695.35 151.32 697.26
  Q 151.33 700.02 154.02 708.47
  Z
  M 474.02 663.49
  Q 473.90 685.49 474.03 707.58
  C 474.03 708.80 474.35 710.00 474.35 711.28
  Q 474.29 736.56 473.98 757.48
  A 0.90 0.89 0.3 0 0 474.89 758.39
  Q 477.72 758.34 480.53 758.83
  Q 482.52 759.16 484.50 759.48
  Q 491.02 760.51 497.50 761.39
  Q 499.95 761.72 502.79 761.68
  A 0.77 0.76 4.0 0 0 503.54 761.04
  Q 504.39 755.44 505.54 750.06
  Q 510.98 724.49 527.29 703.98
  Q 530.23 700.28 538.81 692.18
  L 548.23 684.84
  A 2.36 2.33 -19.1 0 0 549.13 683.02
  L 549.29 623.78
  A 0.76 0.75 0.0 0 0 548.53 623.03
  L 474.49 622.89
  A 0.45 0.45 0.0 0 0 474.03 623.34
  L 474.02 663.49
  Z
  M 311.89 804.77
  Q 315.03 806.97 317.67 808.88
  Q 320.77 811.12 323.81 813.04
  C 373.45 844.54 430.18 862.42 488.79 867.38
  C 493.23 867.75 497.64 867.54 502.12 868.03
  Q 507.03 868.57 511.92 868.54
  C 517.85 868.50 523.80 868.81 529.65 868.12
  C 534.75 867.51 539.86 867.67 545.04 867.18
  Q 587.82 863.18 624.46 851.69
  Q 666.41 838.53 703.13 815.52
  Q 709.40 811.59 716.22 806.73
  Q 717.10 806.10 717.63 805.25
  Q 717.68 805.16 717.79 805.17
  Q 718.00 805.20 717.97 805.34
  Q 717.86 805.89 718.34 805.61
  Q 718.53 805.50 718.70 805.35
  Q 719.08 805.04 718.59 805.05
  Q 718.44 805.05 718.44 804.77
  Q 718.45 804.57 718.62 804.46
  Q 718.94 804.25 719.26 804.35
  Q 719.85 804.54 720.10 803.97
  Q 720.42 803.22 720.73 803.28
  Q 721.67 804.16 721.76 803.02
  Q 721.80 802.56 722.26 802.59
  Q 723.10 802.66 723.32 801.80
  Q 723.48 801.17 724.11 801.35
  Q 724.32 801.40 724.50 801.28
  Q 724.79 801.08 724.44 801.08
  Q 724.22 801.08 724.20 800.87
  Q 724.18 800.73 724.25 800.60
  Q 724.49 800.20 724.87 800.01
  Q 725.03 799.93 725.04 800.11
  Q 725.05 800.24 725.00 800.37
  Q 724.70 801.18 725.43 800.73
  Q 727.51 799.45 728.51 797.42
  Q 728.71 797.01 729.13 797.17
  Q 730.32 797.62 731.07 796.37
  Q 731.40 795.81 730.75 795.88
  Q 730.70 795.89 730.67 795.84
  Q 730.26 795.26 730.96 795.41
  Q 732.02 795.62 732.38 794.58
  Q 732.47 794.35 732.69 794.24
  Q 733.00 794.08 733.02 794.27
  Q 733.08 794.94 733.65 794.53
  Q 735.08 793.51 736.13 792.56
  Q 737.36 791.45 735.71 791.50
  Q 715.03 792.09 697.75 792.15
  C 564.23 792.65 429.34 792.81 295.37 791.90
  A 0.33 0.32 -15.6 0 0 295.09 792.39
  Q 295.89 793.67 297.21 793.41
  Q 297.65 793.32 297.80 793.75
  Q 298.04 794.45 298.77 794.40
  Q 299.17 794.37 299.43 794.66
  Q 299.63 794.90 299.39 794.99
  Q 299.05 795.12 299.33 795.35
  Q 299.64 795.60 299.84 795.40
  Q 300.19 795.05 300.47 795.45
  Q 301.42 796.82 302.82 797.60
  Q 303.16 797.79 303.29 798.16
  Q 303.40 798.46 303.71 798.38
  Q 304.21 798.25 304.54 798.65
  Q 305.49 799.83 306.77 800.34
  Q 307.08 800.46 307.15 800.78
  Q 307.19 800.92 307.21 801.06
  Q 307.30 801.66 307.85 801.37
  Q 308.17 801.20 308.46 801.52
  Q 310.63 803.93 311.89 804.77
  Z"
/>
<path fill="#138095" d="
  M 496.02 165.43
  Q 495.10 166.87 491.97 166.24
  Q 490.96 165.58 494.24 165.26
  Q 495.19 165.17 496.02 165.43
  Z"
/>
<path fill="#44c8d4" d="
  M 368.82 198.13
  Q 369.38 197.95 369.70 197.69
  L 375.31 194.86
  Q 375.74 194.64 376.23 194.62
  Q 377.25 194.57 377.78 194.08
  L 378.74 193.73
  Q 380.22 192.88 381.77 192.15
  Q 382.85 191.64 383.99 191.37
  Q 385.63 190.97 386.94 190.02
  Q 387.69 189.48 388.60 189.55
  Q 389.06 189.58 389.42 189.29
  Q 390.60 188.33 392.40 188.44
  A 0.30 0.30 0.0 0 0 392.66 187.98
  Q 392.53 187.79 392.32 187.89
  Q 392.23 187.93 392.16 187.86
  Q 392.00 187.68 392.37 187.50
  Q 393.01 187.20 393.61 187.54
  Q 394.25 187.89 394.66 187.18
  A 1.27 1.26 -70.9 0 1 395.95 186.55
  Q 397.17 186.74 397.88 185.89
  Q 398.21 185.50 398.71 185.57
  Q 399.60 185.69 400.22 184.91
  Q 400.58 184.47 401.13 184.35
  L 406.70 183.06
  A 0.47 0.46 19.3 0 0 406.83 183.00
  Q 407.15 182.74 407.74 182.55
  Q 436.63 173.05 466.30 168.71
  C 467.98 168.46 470.00 168.71 471.50 168.08
  Q 472.55 167.64 473.65 167.60
  Q 477.38 167.46 480.97 167.27
  Q 482.59 167.65 483.37 166.39
  L 491.97 166.24
  Q 495.10 166.87 496.02 165.43
  Q 515.86 165.25 535.82 165.48
  Q 538.59 165.51 541.12 166.03
  C 545.18 166.85 549.13 166.24 553.24 166.98
  C 556.42 167.56 559.61 167.56 562.89 168.01
  Q 585.44 171.07 607.30 177.47
  Q 608.26 177.75 607.28 177.97
  Q 596.20 180.47 585.09 184.12
  Q 539.25 199.14 508.04 235.30
  Q 491.49 254.48 479.67 278.26
  A 0.60 0.60 0.0 0 1 478.70 278.41
  C 448.34 246.50 407.02 227.21 363.53 221.98
  Q 360.15 221.57 352.01 220.94
  C 343.18 220.25 334.57 220.40 325.90 220.94
  Q 324.89 221.00 325.67 220.36
  C 326.67 219.53 327.88 220.10 328.74 219.06
  Q 328.99 218.75 329.40 218.72
  Q 330.73 218.65 331.56 217.43
  A 1.85 1.79 6.6 0 1 332.45 216.75
  Q 334.16 216.14 335.54 215.12
  C 338.14 213.18 341.41 211.82 344.19 210.41
  C 345.09 209.96 345.50 209.28 346.32 208.87
  Q 356.22 203.83 365.72 199.20
  Q 367.39 198.38 368.82 198.13
  Z
  M 500.76 201.43
  A 15.82 15.82 0.0 0 0 484.94 185.61
  A 15.82 15.82 0.0 0 0 469.12 201.43
  A 15.82 15.82 0.0 0 0 484.94 217.25
  A 15.82 15.82 0.0 0 0 500.76 201.43
  Z
  M 429.4931 214.2974
  A 5.14 4.61 81.8 0 0 433.3229 208.5525
  A 5.14 4.61 81.8 0 0 428.0269 204.1226
  A 5.14 4.61 81.8 0 0 424.1971 209.8675
  A 5.14 4.61 81.8 0 0 429.4931 214.2974
  Z"
/>
<path fill="#138095" d="
  M 483.37 166.39
  Q 482.59 167.65 480.97 167.27
  Q 479.41 166.27 483.37 166.39
  Z"
/>
<circle fill="#ffffff" cx="484.94" cy="201.43" r="15.82"/>
<path fill="#138095" d="
  M 378.74 193.73
  L 377.78 194.08
  Q 375.16 193.35 378.40 193.25
  Q 378.62 193.24 378.65 193.46
  Q 378.67 193.58 378.74 193.73
  Z"
/>
<path fill="#138095" d="
  M 369.70 197.69
  Q 369.38 197.95 368.82 198.13
  Q 366.77 197.52 369.42 197.05
  Q 369.79 196.98 369.74 197.36
  L 369.70 197.69
  Z"
/>
<path fill="#ffffff" d="
  M 716.72 214.48
  Q 679.97 203.78 642.26 206.53
  Q 623.87 207.88 606.24 213.29
  Q 573.23 223.41 545.66 244.16
  Q 540.46 248.07 535.06 253.41
  L 524.79 264.13
  Q 532.75 253.16 542.31 243.82
  C 544.36 241.82 546.74 240.44 548.75 238.29
  Q 550.07 236.87 552.28 235.30
  C 553.90 234.15 555.21 232.75 556.87 231.61
  Q 561.74 228.27 566.71 225.02
  Q 568.50 223.85 570.38 222.85
  Q 572.41 221.78 574.32 220.66
  A 1.08 0.99 26.7 0 1 574.88 220.50
  Q 575.61 220.50 575.92 219.85
  A 0.64 0.63 -70.9 0 1 576.62 219.50
  Q 577.38 219.65 577.80 218.98
  Q 578.09 218.52 578.63 218.53
  Q 578.78 218.54 578.92 218.54
  A 0.94 0.93 14.6 0 0 579.76 218.05
  Q 580.07 217.46 580.78 217.48
  A 1.14 1.13 -61.9 0 0 581.52 217.25
  Q 582.05 216.84 582.70 216.54
  Q 589.74 213.35 596.88 210.96
  Q 600.59 209.72 602.90 209.25
  Q 603.30 209.16 603.64 208.94
  Q 604.43 208.40 605.42 208.46
  Q 606.17 208.51 606.79 208.09
  C 608.05 207.27 609.37 207.69 610.70 207.12
  C 612.45 206.36 614.09 206.73 615.70 205.98
  C 617.28 205.24 619.43 205.44 621.17 205.21
  Q 621.45 205.17 621.61 204.94
  Q 621.85 204.57 622.29 204.56
  Q 624.96 204.51 627.93 204.21
  Q 628.27 204.18 628.53 203.97
  Q 628.65 203.88 628.75 203.77
  Q 628.92 203.60 629.16 203.59
  L 638.43 203.28
  Q 638.99 203.26 639.45 202.93
  Q 639.74 202.73 640.09 202.72
  Q 647.40 202.56 655.20 202.65
  C 659.00 202.68 662.57 203.41 666.36 203.40
  C 670.32 203.39 673.90 204.25 677.80 204.56
  Q 679.93 204.73 682.39 205.13
  Q 692.46 206.77 701.15 208.97
  Q 708.68 210.87 716.29 212.85
  Q 716.71 212.96 716.71 213.40
  L 716.72 214.48
  Z"
/>
<ellipse fill="#ffffff" cx="0.00" cy="0.00" transform="translate(428.76,209.21) rotate(81.8)" rx="5.14" ry="4.61"/>
<path fill="#acc842" d="
  M 716.72 214.48
  Q 711.09 226.51 704.06 236.75
  Q 691.71 243.39 680.10 249.99
  Q 668.59 256.53 662.36 259.18
  Q 619.65 277.30 573.28 265.88
  Q 571.32 262.85 568.48 260.35
  Q 566.51 258.61 563.98 258.31
  Q 559.75 257.80 555.45 258.79
  Q 554.90 259.23 554.21 259.32
  L 553.73 259.52
  L 553.13 259.80
  Q 552.67 260.02 552.20 259.84
  L 535.06 253.41
  Q 540.46 248.07 545.66 244.16
  Q 573.23 223.41 606.24 213.29
  Q 623.87 207.88 642.26 206.53
  Q 679.97 203.78 716.72 214.48
  Z"
/>
<path fill="#629b1a" d="
  M 704.06 236.75
  Q 701.66 241.40 696.95 248.44
  Q 676.15 279.52 647.04 299.00
  Q 642.93 301.74 638.45 304.08
  C 635.91 305.41 631.43 304.63 628.33 304.16
  Q 626.21 303.84 623.65 303.72
  Q 610.79 303.13 607.21 303.13
  Q 567.48 303.12 532.35 320.71
  Q 530.38 321.69 531.82 320.03
  C 532.24 319.56 532.73 319.24 533.11 318.72
  Q 544.21 303.76 555.89 293.09
  Q 560.89 288.52 568.40 283.24
  Q 570.23 281.95 571.88 280.16
  Q 573.16 278.76 573.63 276.74
  Q 574.84 271.48 573.28 265.88
  Q 619.65 277.30 662.36 259.18
  Q 668.59 256.53 680.10 249.99
  Q 691.71 243.39 704.06 236.75
  Z"
/>
<path fill="#44c8d4" d="
  M 852.50 416.04
  Q 847.92 425.82 842.42 433.16
  Q 840.00 436.39 836.43 438.36
  Q 836.51 427.12 828.14 423.18
  C 822.08 420.32 815.22 421.49 810.58 426.36
  Q 804.18 433.09 807.63 442.24
  Q 799.04 449.69 789.11 454.26
  C 782.14 424.98 769.47 400.25 751.25 376.50
  Q 721.76 338.04 677.07 317.11
  A 0.44 0.44 0.0 0 1 677.06 316.32
  Q 677.95 315.88 678.72 315.23
  Q 708.44 290.12 728.36 255.71
  Q 731.96 249.48 735.36 242.90
  C 735.56 242.53 735.57 242.20 735.68 241.80
  A 0.55 0.55 0.0 0 1 736.56 241.53
  Q 779.71 276.95 810.59 323.41
  Q 838.66 365.64 852.50 416.04
  Z
  M 760.2298 302.5152
  A 8.78 8.78 0.0 0 0 750.9302 294.2876
  L 749.2733 294.3889
  A 8.78 8.78 0.0 0 0 741.0457 303.6886
  L 741.1702 305.7248
  A 8.78 8.78 0.0 0 0 750.4698 313.9524
  L 752.1267 313.8511
  A 8.78 8.78 0.0 0 0 760.3543 304.5514
  L 760.2298 302.5152
  Z
  M 804.0121 365.3459
  A 8.11 8.11 0.0 0 0 795.1621 358.0505
  L 793.4899 358.2115
  A 8.11 8.11 0.0 0 0 786.1945 367.0615
  L 786.3479 368.6541
  A 8.11 8.11 0.0 0 0 795.1979 375.9495
  L 796.8701 375.7885
  A 8.11 8.11 0.0 0 0 804.1655 366.9385
  L 804.0121 365.3459
  Z"
/>
<path fill="#ffffff" d="
  M 448.45 309.75
  Q 438.48 297.78 425.09 288.41
  C 408.49 276.80 390.86 268.18 371.72 262.38
  Q 342.52 253.53 311.23 257.10
  Q 300.01 258.28 288.50 261.31
  Q 269.45 266.33 251.63 274.75
  Q 244.62 278.05 237.75 281.54
  Q 237.07 281.50 237.22 281.07
  Q 242.92 277.66 248.75 274.50
  Q 266.49 264.90 285.79 259.06
  C 287.31 258.60 288.88 258.50 290.24 257.80
  Q 290.75 257.53 291.32 257.52
  Q 292.83 257.49 294.07 256.81
  A 2.03 2.02 -59.1 0 1 295.10 256.55
  Q 296.72 256.55 298.05 255.89
  Q 298.54 255.65 299.08 255.56
  L 307.57 254.23
  Q 308.58 254.33 309.45 253.54
  Q 311.99 253.67 314.37 253.19
  Q 317.42 252.58 319.20 252.55
  Q 322.81 252.49 326.10 252.08
  C 332.82 251.24 339.53 251.46 346.43 251.50
  Q 348.35 251.52 354.02 252.17
  Q 357.59 252.59 361.64 252.57
  C 362.54 252.56 363.58 253.09 364.54 253.20
  Q 373.19 254.21 382.00 256.40
  Q 438.36 270.45 471.26 317.62
  Q 471.71 318.27 470.97 318.00
  L 448.45 309.75
  Z"
/>
<path fill="#629b1a" d="
  M 535.06 253.41
  L 552.20 259.84
  Q 552.67 260.02 553.13 259.80
  L 553.73 259.52
  Q 553.67 259.68 553.64 259.83
  A 0.64 0.64 0.0 0 1 553.34 260.29
  C 551.90 261.20 550.40 261.78 548.96 262.75
  Q 538.05 270.11 531.18 276.26
  Q 514.78 290.94 503.21 306.65
  Q 499.80 311.28 501.76 305.87
  Q 509.81 283.70 524.79 264.13
  L 535.06 253.41
  Z"
/>
<path fill="#629b1a" d="
  M 309.45 253.54
  Q 308.58 254.33 307.57 254.23
  Q 307.65 253.46 309.45 253.54
  Z"
/>
<path fill="#acc842" d="
  M 448.45 309.75
  Q 445.68 309.17 443.18 308.71
  Q 441.53 308.40 439.90 307.83
  C 438.48 307.32 437.01 307.48 435.41 307.00
  Q 433.20 306.33 430.79 306.45
  Q 429.63 305.81 428.18 305.71
  Q 425.46 305.60 416.75 304.92
  Q 401.24 303.72 383.69 306.24
  Q 363.97 298.10 346.42 287.04
  Q 329.85 276.60 315.98 262.77
  Q 313.29 260.08 311.23 257.10
  Q 342.52 253.53 371.72 262.38
  C 390.86 268.18 408.49 276.80 425.09 288.41
  Q 438.48 297.78 448.45 309.75
  Z"
/>
<path fill="#90b631" d="
  M 311.23 257.10
  Q 313.29 260.08 315.98 262.77
  Q 329.85 276.60 346.42 287.04
  Q 363.97 298.10 383.69 306.24
  Q 369.03 309.40 355.25 313.51
  Q 353.08 314.16 349.14 316.00
  L 348.14 315.07
  Q 347.81 314.76 347.35 314.76
  Q 345.20 314.73 343.62 315.11
  Q 336.04 316.94 319.88 320.14
  Q 284.97 327.04 252.75 329.83
  Q 243.47 330.64 234.44 330.79
  C 233.21 330.81 232.94 329.73 231.86 329.28
  Q 216.63 322.84 210.98 306.78
  Q 210.04 304.11 209.03 301.31
  Q 216.00 295.50 221.76 291.46
  Q 226.02 288.47 235.16 282.46
  Q 235.94 282.78 237.75 281.54
  Q 244.62 278.05 251.63 274.75
  Q 269.45 266.33 288.50 261.31
  Q 300.01 258.28 311.23 257.10
  Z"
/>
<path fill="#629b1a" d="
  M 555.45 258.79
  Q 556.51 259.56 554.69 259.84
  Q 554.39 259.88 554.30 259.60
  Q 554.26 259.46 554.21 259.32
  Q 554.90 259.23 555.45 258.79
  Z"
/>
<path fill="#c9e8eb" d="
  M 237.22 281.07
  Q 237.07 281.50 237.75 281.54
  Q 235.94 282.78 235.16 282.46
  L 237.22 281.07
  Z"
/>
<rect fill="#ffffff" x="-9.61" y="-9.80" transform="translate(750.70,304.12) rotate(-3.5)" width="19.22" height="19.60" rx="8.78"/>
<path fill="#629b1a" d="
  M 209.03 301.31
  Q 210.04 304.11 210.98 306.78
  Q 216.63 322.84 231.86 329.28
  C 232.94 329.73 233.21 330.81 234.44 330.79
  Q 243.47 330.64 252.75 329.83
  Q 284.97 327.04 319.88 320.14
  Q 336.04 316.94 343.62 315.11
  Q 345.20 314.73 347.35 314.76
  Q 347.81 314.76 348.14 315.07
  L 349.14 316.00
  Q 302.30 336.18 272.38 377.14
  Q 271.21 378.74 269.20 378.65
  Q 252.50 377.86 236.72 374.94
  C 218.63 371.59 201.32 365.59 184.14 358.31
  Q 173.14 353.66 162.70 347.71
  A 0.80 0.80 0.0 0 1 162.49 346.49
  Q 183.70 321.95 209.03 301.31
  Z"
/>
<path fill="#629b1a" d="
  M 428.18 305.71
  Q 429.63 305.81 430.79 306.45
  Q 429.63 306.83 428.18 305.71
  Z"
/>
<path fill="#ffffff" d="
  M 718.61 501.46
  C 716.76 499.18 714.28 497.08 712.95 494.74
  C 707.56 485.25 713.94 478.02 721.63 472.97
  Q 723.10 472.01 723.17 470.32
  C 723.39 464.86 722.26 459.90 716.89 457.31
  Q 713.49 455.67 710.36 454.12
  C 700.97 449.46 697.85 440.29 693.39 431.89
  Q 684.91 415.92 671.78 403.22
  Q 663.77 395.48 656.75 391.77
  Q 652.35 389.45 647.80 387.15
  C 640.57 383.50 639.06 377.25 638.24 369.66
  C 638.05 367.89 637.06 366.85 635.68 365.86
  Q 632.59 363.64 629.34 362.25
  Q 616.86 356.92 601.55 355.33
  C 596.42 354.79 591.16 355.06 586.07 354.98
  Q 580.25 354.89 574.59 355.63
  Q 559.02 357.65 543.95 363.53
  A 0.68 0.68 0.0 0 0 543.80 364.72
  Q 587.26 396.21 609.16 446.15
  Q 618.31 466.99 623.45 489.34
  Q 625.44 498.02 626.46 508.08
  C 627.33 516.61 622.60 523.93 612.94 521.61
  C 608.27 520.49 605.87 514.45 605.31 510.17
  C 604.04 500.40 602.77 490.95 599.98 481.38
  Q 583.98 426.38 543.64 389.15
  Q 532.02 378.42 517.73 370.51
  C 516.75 369.97 515.07 369.75 514.06 370.24
  Q 501.58 376.29 493.54 382.80
  Q 492.29 383.81 490.75 384.34
  Q 490.24 384.52 489.90 384.10
  C 488.38 382.22 486.97 380.30 485.17 378.65
  Q 479.64 373.57 475.66 370.39
  Q 454.86 353.77 428.45 348.28
  C 425.82 347.73 423.18 347.09 420.49 346.96
  C 417.82 346.83 415.50 346.00 412.83 346.00
  C 406.00 346.00 398.85 345.53 392.17 346.39
  Q 389.17 346.78 386.01 347.26
  Q 358.21 351.51 334.86 367.30
  Q 333.26 368.39 331.74 369.83
  Q 330.31 371.18 328.73 372.50
  L 330.19 362.82
  Q 331.05 361.66 332.70 360.48
  Q 355.14 344.52 381.26 338.44
  Q 386.64 337.19 392.40 336.61
  Q 398.08 336.05 403.42 335.77
  Q 409.57 335.45 417.29 336.21
  Q 425.43 337.01 428.21 337.46
  Q 461.66 342.93 487.72 363.94
  C 489.23 365.15 490.53 366.60 492.13 367.67
  C 494.87 369.49 497.50 372.50 499.80 374.80
  A 0.93 0.93 0.0 0 0 500.93 374.94
  C 503.32 373.54 505.11 371.51 507.49 370.16
  C 508.63 369.51 509.41 368.44 510.57 367.69
  Q 513.10 366.05 515.72 364.26
  Q 529.94 354.51 547.73 346.69
  Q 567.93 337.81 589.29 334.87
  C 592.63 334.41 595.83 334.61 599.09 334.06
  C 602.50 333.50 606.04 333.69 609.49 333.69
  Q 612.66 333.68 616.15 334.16
  C 619.21 334.57 622.18 334.43 625.25 334.84
  C 664.15 340.04 698.87 361.07 723.95 391.02
  Q 758.40 432.13 764.20 485.08
  C 764.61 488.81 764.46 492.43 764.78 496.11
  Q 764.84 496.76 764.19 496.72
  Q 740.82 495.34 718.61 501.46
  Z"
/>
<path fill="#fbc039" d="
  M 718.61 501.46
  Q 668.98 516.58 640.63 559.67
  A 0.67 0.66 -54.8 0 1 639.68 559.84
  Q 617.04 542.84 594.18 524.84
  Q 592.24 523.32 590.06 521.49
  Q 588.49 520.18 588.52 518.12
  Q 588.78 500.44 588.78 481.20
  C 588.79 473.44 586.63 466.01 577.94 464.33
  C 573.71 463.51 569.35 463.57 565.88 466.48
  Q 559.94 471.47 560.07 478.51
  Q 560.26 487.77 559.90 496.95
  Q 559.88 497.42 559.64 497.86
  A 0.52 0.52 0.0 0 1 558.84 498.01
  Q 542.45 484.32 525.66 471.88
  Q 522.55 469.57 518.19 466.82
  Q 515.25 464.96 511.99 464.91
  Q 509.63 464.87 506.12 466.83
  Q 499.55 470.50 497.28 472.27
  Q 463.73 498.46 430.02 524.32
  Q 412.79 513.42 397.30 500.49
  Q 369.37 477.20 349.90 447.45
  C 346.77 442.68 343.97 437.64 341.15 432.64
  Q 338.09 427.23 335.56 421.50
  Q 330.15 409.28 329.00 405.50
  Q 326.07 395.77 322.66 385.50
  Q 326.54 380.45 328.73 372.50
  Q 330.31 371.18 331.74 369.83
  Q 333.26 368.39 334.86 367.30
  Q 358.21 351.51 386.01 347.26
  Q 389.17 346.78 392.17 346.39
  C 398.85 345.53 406.00 346.00 412.83 346.00
  C 415.50 346.00 417.82 346.83 420.49 346.96
  C 423.18 347.09 425.82 347.73 428.45 348.28
  Q 454.86 353.77 475.66 370.39
  Q 479.64 373.57 485.17 378.65
  C 486.97 380.30 488.38 382.22 489.90 384.10
  Q 490.24 384.52 490.75 384.34
  Q 492.29 383.81 493.54 382.80
  Q 501.58 376.29 514.06 370.24
  C 515.07 369.75 516.75 369.97 517.73 370.51
  Q 532.02 378.42 543.64 389.15
  Q 583.98 426.38 599.98 481.38
  C 602.77 490.95 604.04 500.40 605.31 510.17
  C 605.87 514.45 608.27 520.49 612.94 521.61
  C 622.60 523.93 627.33 516.61 626.46 508.08
  Q 625.44 498.02 623.45 489.34
  Q 618.31 466.99 609.16 446.15
  Q 587.26 396.21 543.80 364.72
  A 0.68 0.68 0.0 0 1 543.95 363.53
  Q 559.02 357.65 574.59 355.63
  Q 580.25 354.89 586.07 354.98
  C 591.16 355.06 596.42 354.79 601.55 355.33
  Q 616.86 356.92 629.34 362.25
  Q 632.59 363.64 635.68 365.86
  C 637.06 366.85 638.05 367.89 638.24 369.66
  C 639.06 377.25 640.57 383.50 647.80 387.15
  Q 652.35 389.45 656.75 391.77
  Q 663.77 395.48 671.78 403.22
  Q 684.91 415.92 693.39 431.89
  C 697.85 440.29 700.97 449.46 710.36 454.12
  Q 713.49 455.67 716.89 457.31
  C 722.26 459.90 723.39 464.86 723.17 470.32
  Q 723.10 472.01 721.63 472.97
  C 713.94 478.02 707.56 485.25 712.95 494.74
  C 714.28 497.08 716.76 499.18 718.61 501.46
  Z"
/>
<rect fill="#ffffff" x="-8.95" y="-8.91" transform="translate(795.18,367.00) rotate(-5.5)" width="17.90" height="17.82" rx="8.11"/>
<path fill="#e45d11" d="
  M 330.19 362.82
  L 328.73 372.50
  Q 326.54 380.45 322.66 385.50
  Q 312.28 401.81 308.18 419.75
  Q 306.45 427.35 307.21 435.11
  C 307.89 442.06 311.30 447.35 318.43 449.01
  Q 320.26 449.43 321.97 450.01
  A 1.28 1.27 -84.6 0 1 322.84 451.07
  Q 324.49 464.99 327.19 475.96
  Q 335.94 511.60 357.05 543.93
  Q 363.79 554.24 371.16 564.36
  Q 372.09 565.64 374.87 566.82
  Q 360.90 574.26 363.53 588.23
  Q 364.31 592.34 367.50 594.30
  Q 368.52 594.92 369.50 595.61
  Q 370.52 596.32 371.70 596.59
  Q 377.58 597.93 383.47 596.15
  Q 385.93 595.41 392.33 589.68
  Q 399.74 599.35 405.08 604.92
  Q 414.25 614.48 431.06 630.18
  Q 437.94 636.61 443.23 640.79
  Q 444.87 642.09 447.99 644.02
  L 447.97 751.40
  A 0.39 0.39 0.0 0 1 447.40 751.75
  L 445.48 750.76
  Q 445.07 750.55 444.61 750.55
  Q 443.51 750.56 442.66 749.86
  Q 442.27 749.54 441.76 749.59
  Q 440.62 749.68 439.72 749.01
  Q 439.31 748.71 438.81 748.64
  L 437.36 748.46
  Q 436.89 748.40 436.60 748.02
  Q 436.26 747.56 435.64 747.53
  Q 435.20 747.51 434.80 747.38
  Q 385.90 731.25 346.12 699.00
  C 316.56 675.04 293.19 643.69 278.19 609.19
  Q 262.45 573.00 259.64 537.59
  Q 258.64 525.04 259.39 500.51
  C 259.50 496.79 260.13 493.28 260.57 489.52
  Q 264.63 454.33 280.52 422.74
  Q 280.31 422.24 280.77 421.96
  Q 281.10 421.76 281.27 421.41
  Q 283.22 417.39 285.27 413.78
  C 285.61 413.17 286.11 412.91 286.40 412.19
  Q 287.45 409.58 289.15 407.65
  Q 289.48 407.27 289.59 406.79
  C 289.88 405.44 291.33 405.21 291.56 403.79
  Q 291.64 403.30 291.98 402.95
  L 293.05 401.85
  Q 293.42 401.47 293.54 400.95
  Q 293.76 399.91 294.66 399.24
  A 2.17 2.12 -7.1 0 0 295.37 398.35
  C 296.16 396.54 297.62 395.53 298.63 393.82
  Q 299.50 392.36 300.77 391.12
  Q 301.92 390.00 302.86 388.58
  Q 304.07 386.75 306.04 384.64
  Q 307.28 383.31 308.63 381.80
  Q 317.18 372.19 328.98 362.77
  Q 329.57 362.30 330.19 362.82
  Z"
/>
<path fill="#faa224" d="
  M 322.66 385.50
  Q 326.07 395.77 329.00 405.50
  Q 330.15 409.28 335.56 421.50
  Q 338.09 427.23 341.15 432.64
  C 343.97 437.64 346.77 442.68 349.90 447.45
  Q 369.37 477.20 397.30 500.49
  Q 412.79 513.42 430.02 524.32
  L 374.87 566.82
  Q 372.09 565.64 371.16 564.36
  Q 363.79 554.24 357.05 543.93
  Q 335.94 511.60 327.19 475.96
  Q 324.49 464.99 322.84 451.07
  A 1.28 1.27 -84.6 0 0 321.97 450.01
  Q 320.26 449.43 318.43 449.01
  C 311.30 447.35 307.89 442.06 307.21 435.11
  Q 306.45 427.35 308.18 419.75
  Q 312.28 401.81 322.66 385.50
  Z"
/>
<path fill="#24acbb" d="
  M 163.39 509.14
  Q 163.26 503.51 163.44 499.00
  Q 165.62 444.46 185.08 393.71
  A 0.61 0.61 0.0 0 1 185.90 393.37
  Q 210.36 404.13 236.66 408.20
  C 240.30 408.76 244.78 409.04 248.01 409.83
  Q 250.38 410.41 252.20 410.34
  Q 253.12 410.31 252.77 411.16
  Q 252.57 411.64 252.12 411.94
  A 1.32 1.31 -3.8 0 0 251.65 412.47
  Q 237.98 441.17 232.23 473.09
  Q 229.74 486.88 228.92 499.19
  Q 227.96 513.66 228.57 535.58
  Q 228.66 538.96 229.16 542.00
  C 229.64 544.92 229.66 547.78 230.04 550.67
  Q 231.71 563.31 234.79 576.81
  Q 234.97 577.61 234.16 577.67
  Q 228.52 578.08 222.68 578.60
  C 205.84 580.11 189.40 585.49 174.67 593.56
  Q 173.63 594.12 173.34 592.98
  Q 167.16 568.93 164.91 545.37
  C 164.47 540.67 164.44 535.66 163.75 530.84
  Q 163.29 527.66 163.37 524.89
  Q 163.59 517.23 163.39 509.14
  Z
  M 202.7541 461.5335
  A 9.96 9.59 63.5 0 0 206.8924 448.3410
  A 9.96 9.59 63.5 0 0 193.8659 443.7065
  A 9.96 9.59 63.5 0 0 189.7276 456.8990
  A 9.96 9.59 63.5 0 0 202.7541 461.5335
  Z
  M 200.1149 512.0003
  A 4.82 4.82 0.0 0 0 194.8100 507.7198
  L 193.8356 507.8239
  A 4.82 4.82 0.0 0 0 189.5551 513.1288
  L 189.7251 514.7197
  A 4.82 4.82 0.0 0 0 195.0300 519.0002
  L 196.0044 518.8961
  A 4.82 4.82 0.0 0 0 200.2849 513.5912
  L 200.1149 512.0003
  Z
  M 202.76 555.60
  A 4.82 4.82 0.0 0 0 197.94 550.78
  A 4.82 4.82 0.0 0 0 193.12 555.60
  A 4.82 4.82 0.0 0 0 197.94 560.42
  A 4.82 4.82 0.0 0 0 202.76 555.60
  Z"
/>
<path fill="#24acbb" d="
  M 852.50 416.04
  Q 858.70 439.68 862.07 466.75
  Q 862.73 472.07 862.99 473.97
  Q 863.91 480.63 863.80 487.07
  Q 863.29 493.36 864.59 499.38
  L 864.60 514.61
  Q 863.15 518.31 863.95 522.62
  Q 863.52 526.47 863.56 530.55
  C 863.60 534.14 862.59 537.22 862.53 540.69
  Q 862.48 543.68 861.87 547.16
  Q 861.76 547.79 861.30 547.36
  Q 860.75 546.85 860.80 546.12
  Q 860.82 545.77 860.51 545.65
  Q 860.32 545.57 860.18 545.41
  Q 845.75 527.63 828.81 517.31
  Q 813.04 507.69 795.70 502.03
  A 1.22 1.21 8.7 0 1 794.86 500.89
  Q 794.52 476.92 789.11 454.26
  Q 799.04 449.69 807.63 442.24
  Q 809.51 447.36 813.28 449.46
  C 818.78 452.51 826.25 452.33 831.16 448.24
  Q 835.59 444.56 836.43 438.36
  Q 840.00 436.39 842.42 433.16
  Q 847.92 425.82 852.50 416.04
  Z
  M 826.5072 492.1092
  A 5.09 4.88 81.9 0 0 830.6213 486.3824
  A 5.09 4.88 81.9 0 0 825.0728 482.0308
  A 5.09 4.88 81.9 0 0 820.9587 487.7576
  A 5.09 4.88 81.9 0 0 826.5072 492.1092
  Z"
/>
<path fill="#ffffff" d="
  M 836.43 438.36
  Q 835.59 444.56 831.16 448.24
  C 826.25 452.33 818.78 452.51 813.28 449.46
  Q 809.51 447.36 807.63 442.24
  Q 804.18 433.09 810.58 426.36
  C 815.22 421.49 822.08 420.32 828.14 423.18
  Q 836.51 427.12 836.43 438.36
  Z"
/>
<ellipse fill="#ffffff" cx="0.00" cy="0.00" transform="translate(198.31,452.62) rotate(63.5)" rx="9.96" ry="9.59"/>
<ellipse fill="#ffffff" cx="0.00" cy="0.00" transform="translate(825.79,487.07) rotate(81.9)" rx="5.09" ry="4.88"/>
<path fill="#138095" d="
  M 863.80 487.07
  Q 865.51 492.77 864.59 499.38
  Q 863.29 493.36 863.80 487.07
  Z"
/>
<path fill="#fbc039" d="
  M 617.98 578.27
  Q 612.79 579.63 607.75 578.97
  Q 602.47 578.29 598.27 577.97
  Q 592.34 577.52 588.78 577.07
  Q 583.41 576.39 578.01 575.97
  C 575.54 575.78 573.43 574.92 571.01 574.99
  C 569.23 575.05 567.76 574.21 566.02 574.10
  Q 564.25 573.99 562.50 573.68
  Q 512.69 564.94 466.81 544.44
  Q 461.76 542.19 457.29 539.13
  L 511.31 498.02
  A 1.68 1.67 45.1 0 1 513.33 498.03
  L 617.98 578.27
  Z"
/>
<rect fill="#ffffff" x="-5.31" y="-5.62" transform="translate(194.92,513.36) rotate(-6.1)" width="10.62" height="11.24" rx="4.82"/>
<path fill="#138095" d="
  M 864.60 514.61
  Q 865.41 519.02 863.95 522.62
  Q 863.15 518.31 864.60 514.61
  Z"
/>
<path fill="#ffffff" d="
  M 659.66 681.21
  Q 662.86 679.21 665.97 677.16
  Q 669.91 674.55 672.49 673.45
  C 684.37 668.36 698.22 668.77 710.24 673.11
  A 0.58 0.58 0.0 0 0 711.01 672.50
  Q 707.33 641.07 727.76 618.49
  C 743.79 600.79 769.24 593.85 792.43 597.10
  Q 797.35 597.79 801.67 598.75
  Q 803.17 599.09 802.06 598.03
  C 794.91 591.21 785.54 585.62 776.22 582.28
  Q 749.53 572.71 722.75 580.74
  C 707.85 585.21 693.25 594.55 681.59 605.10
  Q 664.90 620.20 649.47 638.35
  Q 649.13 630.60 649.38 624.19
  Q 649.47 621.89 649.93 619.60
  Q 650.46 617.03 650.83 614.59
  Q 652.92 600.69 661.67 583.62
  Q 661.69 583.57 662.69 582.19
  Q 663.13 581.58 663.58 580.51
  Q 663.87 579.82 665.32 577.48
  Q 665.62 577.00 666.08 577.31
  Q 666.26 577.43 666.47 577.35
  Q 667.15 577.08 666.45 576.88
  Q 666.27 576.83 666.12 576.75
  Q 665.68 576.52 666.03 576.17
  Q 667.41 574.81 668.34 573.19
  Q 669.11 571.83 670.23 570.69
  C 671.40 569.49 671.82 568.07 673.02 566.95
  Q 675.05 565.03 676.69 562.84
  Q 679.33 559.32 682.91 556.45
  Q 684.91 554.85 686.86 553.04
  Q 688.84 551.20 690.89 549.65
  Q 714.63 531.59 743.08 528.00
  Q 748.31 527.34 753.40 527.37
  C 758.17 527.40 762.89 527.27 767.67 527.83
  Q 798.14 531.42 822.12 550.24
  Q 831.08 557.27 838.60 566.75
  Q 851.57 583.10 856.34 602.65
  Q 856.62 603.79 857.55 604.51
  C 860.74 606.98 864.09 609.26 867.04 612.07
  Q 886.72 630.74 892.76 657.18
  C 897.76 679.07 892.93 702.32 880.74 721.11
  C 866.83 742.56 844.89 757.53 819.47 760.86
  Q 811.58 761.89 800.63 761.86
  Q 668.36 761.46 536.15 761.88
  A 0.15 0.15 0.0 0 1 536.00 761.71
  Q 538.22 738.79 552.78 721.49
  Q 568.91 702.31 593.85 697.79
  Q 603.40 696.05 614.16 697.41
  Q 630.17 699.42 644.20 708.75
  A 1.06 1.05 -67.3 0 0 645.81 708.08
  C 646.30 705.69 646.45 703.26 647.22 701.01
  Q 649.71 693.74 654.30 687.55
  Q 655.86 685.45 659.66 681.21
  Z"
/>
<path fill="#faa224" d="
  M 457.29 539.13
  Q 461.76 542.19 466.81 544.44
  Q 512.69 564.94 562.50 573.68
  Q 564.25 573.99 566.02 574.10
  C 567.76 574.21 569.23 575.05 571.01 574.99
  C 573.43 574.92 575.54 575.78 578.01 575.97
  Q 583.41 576.39 588.78 577.07
  Q 592.34 577.52 598.27 577.97
  Q 602.47 578.29 607.75 578.97
  Q 612.79 579.63 617.98 578.27
  L 626.53 584.92
  A 1.20 1.19 29.4 0 1 626.91 586.27
  Q 617.90 610.31 618.43 636.02
  Q 618.62 645.29 619.58 652.78
  Q 620.50 659.94 622.27 667.02
  Q 622.44 667.69 621.75 667.61
  Q 612.37 666.63 604.99 666.55
  Q 590.97 666.41 575.68 670.81
  Q 574.95 671.02 574.95 670.26
  Q 575.03 643.90 574.93 619.14
  Q 574.91 615.99 574.20 613.01
  C 572.67 606.66 566.70 601.65 560.74 599.66
  Q 556.24 598.16 550.37 598.12
  Q 503.98 597.76 469.75 598.11
  Q 462.73 598.18 456.44 602.18
  C 452.43 604.72 449.19 609.20 448.60 613.75
  Q 448.17 616.98 448.12 621.50
  Q 448.00 632.69 447.99 644.02
  Q 444.87 642.09 443.23 640.79
  Q 437.94 636.61 431.06 630.18
  Q 414.25 614.48 405.08 604.92
  Q 399.74 599.35 392.33 589.68
  L 457.29 539.13
  Z"
/>
<circle fill="#ffffff" cx="197.94" cy="555.60" r="4.82"/>
<path fill="#c9e8eb" d="
  M 659.66 681.21
  Q 658.43 676.47 656.80 672.47
  Q 653.06 663.27 650.72 651.55
  Q 649.05 643.20 649.47 638.35
  Q 664.90 620.20 681.59 605.10
  C 693.25 594.55 707.85 585.21 722.75 580.74
  Q 749.53 572.71 776.22 582.28
  C 785.54 585.62 794.91 591.21 802.06 598.03
  Q 803.17 599.09 801.67 598.75
  Q 797.35 597.79 792.43 597.10
  C 769.24 593.85 743.79 600.79 727.76 618.49
  Q 707.33 641.07 711.01 672.50
  A 0.58 0.58 0.0 0 1 710.24 673.11
  C 698.22 668.77 684.37 668.36 672.49 673.45
  Q 669.91 674.55 665.97 677.16
  Q 662.86 679.21 659.66 681.21
  Z"
/>
<path fill="#ffffff" d="
  M 227.48 609.45
  Q 232.96 617.91 237.42 626.78
  Q 243.53 638.92 242.97 652.86
  Q 242.92 654.21 241.57 654.15
  Q 217.90 653.14 198.51 662.85
  Q 176.72 673.77 161.01 694.41
  Q 158.14 698.20 155.20 702.20
  A 3.08 3.08 0.0 0 0 154.72 704.88
  Q 155.55 707.77 154.02 708.47
  Q 151.33 700.02 151.32 697.26
  Q 151.32 695.35 150.78 694.26
  A 2.38 2.34 -58.5 0 1 150.56 693.31
  Q 150.44 687.28 150.46 681.11
  C 150.46 678.48 151.17 675.97 151.50 673.28
  Q 151.71 671.47 152.06 670.17
  Q 155.78 656.15 161.24 647.76
  Q 182.12 615.64 220.50 609.70
  Q 224.36 609.10 227.48 609.45
  Z"
/>
<path fill="#c9e8eb" d="
  M 299.55 761.45
  C 299.03 757.55 299.01 753.37 298.19 749.92
  Q 295.49 738.47 286.63 731.08
  C 283.46 728.43 279.08 726.41 275.16 724.62
  Q 274.12 724.15 273.66 723.11
  C 272.51 720.52 271.93 717.77 270.55 715.32
  C 252.44 683.09 204.16 691.16 194.43 725.47
  Q 190.31 740.02 197.13 755.63
  Q 192.73 754.09 188.96 751.83
  Q 163.13 736.38 154.02 708.47
  Q 155.55 707.77 154.72 704.88
  A 3.08 3.08 0.0 0 1 155.20 702.20
  Q 158.14 698.20 161.01 694.41
  Q 176.72 673.77 198.51 662.85
  Q 217.90 653.14 241.57 654.15
  Q 242.92 654.21 242.97 652.86
  Q 243.53 638.92 237.42 626.78
  Q 232.96 617.91 227.48 609.45
  L 244.51 609.21
  Q 245.00 609.21 245.18 609.67
  C 268.15 667.90 308.58 716.63 363.16 747.48
  C 372.24 752.61 381.37 757.59 390.92 761.49
  Q 392.42 762.10 390.80 762.09
  L 299.55 761.45
  Z"
/>
<path fill="#faa224" d="
  M 538.81 692.18
  L 510.79 681.40
  Q 512.21 673.19 506.91 669.23
  Q 503.29 666.53 499.11 667.29
  Q 494.78 668.08 491.85 672.37
  L 475.63 662.53
  Q 475.17 662.25 474.80 662.65
  L 474.02 663.49
  L 474.03 623.34
  A 0.45 0.45 0.0 0 1 474.49 622.89
  L 548.53 623.03
  A 0.76 0.75 0.0 0 1 549.29 623.78
  L 549.13 683.02
  A 2.36 2.33 -19.1 0 1 548.23 684.84
  L 538.81 692.18
  Z"
/>
<path fill="#e45d11" d="
  M 491.85 672.37
  Q 490.20 676.93 491.12 680.79
  C 492.09 684.85 497.64 689.82 502.26 688.72
  Q 508.14 687.33 510.79 681.40
  L 538.81 692.18
  Q 530.23 700.28 527.29 703.98
  Q 510.98 724.49 505.54 750.06
  Q 504.39 755.44 503.54 761.04
  A 0.77 0.76 4.0 0 1 502.79 761.68
  Q 499.95 761.72 497.50 761.39
  Q 491.02 760.51 484.50 759.48
  Q 482.52 759.16 480.53 758.83
  Q 477.72 758.34 474.89 758.39
  A 0.90 0.89 0.3 0 1 473.98 757.48
  Q 474.29 736.56 474.35 711.28
  C 474.35 710.00 474.03 708.80 474.03 707.58
  Q 473.90 685.49 474.02 663.49
  L 474.80 662.65
  Q 475.17 662.25 475.63 662.53
  L 491.85 672.37
  Z"
/>
<path fill="#0c2e3e" d="
  M 510.79 681.40
  Q 508.14 687.33 502.26 688.72
  C 497.64 689.82 492.09 684.85 491.12 680.79
  Q 490.20 676.93 491.85 672.37
  Q 494.78 668.08 499.11 667.29
  Q 503.29 666.53 506.91 669.23
  Q 512.21 673.19 510.79 681.40
  Z"
/>
<path fill="#ffffff" d="
  M 299.55 761.45
  Q 262.37 761.77 225.21 761.75
  C 220.46 761.75 216.06 761.07 211.50 760.29
  Q 203.12 758.86 197.13 755.63
  Q 190.31 740.02 194.43 725.47
  C 204.16 691.16 252.44 683.09 270.55 715.32
  C 271.93 717.77 272.51 720.52 273.66 723.11
  Q 274.12 724.15 275.16 724.62
  C 279.08 726.41 283.46 728.43 286.63 731.08
  Q 295.49 738.47 298.19 749.92
  C 299.01 753.37 299.03 757.55 299.55 761.45
  Z"
/>
<path fill="#138095" d="
  M 720.73 803.28
  Q 721.15 803.24 721.16 802.78
  Q 721.18 802.17 720.61 802.38
  C 717.12 803.62 713.69 805.06 710.20 805.93
  Q 670.08 815.97 649.36 819.41
  Q 619.44 824.37 588.50 826.14
  Q 577.30 826.78 565.87 827.38
  Q 561.11 819.88 553.65 824.86
  Q 535.66 822.80 518.64 817.84
  C 516.26 817.15 512.55 816.63 510.61 817.09
  Q 495.55 820.65 480.11 824.00
  Q 477.95 819.65 473.93 816.97
  C 468.76 813.54 463.02 813.47 457.86 816.89
  Q 452.12 820.71 451.74 827.55
  Q 446.95 825.76 441.52 825.88
  Q 437.90 825.97 435.99 825.78
  C 431.35 825.32 426.09 825.03 422.09 824.58
  Q 378.66 819.67 336.25 809.03
  Q 330.71 807.64 321.75 806.03
  Q 314.90 804.80 311.89 804.77
  Q 310.63 803.93 308.46 801.52
  Q 308.17 801.20 307.85 801.37
  Q 307.30 801.66 307.21 801.06
  Q 307.19 800.92 307.15 800.78
  Q 307.08 800.46 306.77 800.34
  Q 305.49 799.83 304.54 798.65
  Q 304.21 798.25 303.71 798.38
  Q 303.40 798.46 303.29 798.16
  Q 303.16 797.79 302.82 797.60
  Q 301.42 796.82 300.47 795.45
  Q 300.19 795.05 299.84 795.40
  Q 299.64 795.60 299.33 795.35
  Q 299.05 795.12 299.39 794.99
  Q 299.63 794.90 299.43 794.66
  Q 299.17 794.37 298.77 794.40
  Q 298.04 794.45 297.80 793.75
  Q 297.65 793.32 297.21 793.41
  Q 295.89 793.67 295.09 792.39
  A 0.33 0.32 -15.6 0 1 295.37 791.90
  C 429.34 792.81 564.23 792.65 697.75 792.15
  Q 715.03 792.09 735.71 791.50
  Q 737.36 791.45 736.13 792.56
  Q 735.08 793.51 733.65 794.53
  Q 733.08 794.94 733.02 794.27
  Q 733.00 794.08 732.69 794.24
  Q 732.47 794.35 732.38 794.58
  Q 732.02 795.62 730.96 795.41
  Q 730.26 795.26 730.67 795.84
  Q 730.70 795.89 730.75 795.88
  Q 731.40 795.81 731.07 796.37
  Q 730.32 797.62 729.13 797.17
  Q 728.71 797.01 728.51 797.42
  Q 727.51 799.45 725.43 800.73
  Q 724.70 801.18 725.00 800.37
  Q 725.05 800.24 725.04 800.11
  Q 725.03 799.93 724.87 800.01
  Q 724.49 800.20 724.25 800.60
  Q 724.18 800.73 724.20 800.87
  Q 724.22 801.08 724.44 801.08
  Q 724.79 801.08 724.50 801.28
  Q 724.32 801.40 724.11 801.35
  Q 723.48 801.17 723.32 801.80
  Q 723.10 802.66 722.26 802.59
  Q 721.80 802.56 721.76 803.02
  Q 721.67 804.16 720.73 803.28
  Z"
/>
<path fill="#24acbb" d="
  M 720.73 803.28
  Q 720.42 803.22 720.10 803.97
  Q 719.85 804.54 719.26 804.35
  Q 718.94 804.25 718.62 804.46
  Q 718.45 804.57 718.44 804.77
  Q 718.44 805.05 718.59 805.05
  Q 719.08 805.04 718.70 805.35
  Q 718.53 805.50 718.34 805.61
  Q 717.86 805.89 717.97 805.34
  Q 718.00 805.20 717.79 805.17
  Q 717.68 805.16 717.63 805.25
  Q 717.10 806.10 716.22 806.73
  Q 709.40 811.59 703.13 815.52
  Q 666.41 838.53 624.46 851.69
  Q 587.82 863.18 545.04 867.18
  C 539.86 867.67 534.75 867.51 529.65 868.12
  C 523.80 868.81 517.85 868.50 511.92 868.54
  Q 507.03 868.57 502.12 868.03
  C 497.64 867.54 493.23 867.75 488.79 867.38
  C 430.18 862.42 373.45 844.54 323.81 813.04
  Q 320.77 811.12 317.67 808.88
  Q 315.03 806.97 311.89 804.77
  Q 314.90 804.80 321.75 806.03
  Q 330.71 807.64 336.25 809.03
  Q 378.66 819.67 422.09 824.58
  C 426.09 825.03 431.35 825.32 435.99 825.78
  Q 437.90 825.97 441.52 825.88
  Q 446.95 825.76 451.74 827.55
  Q 451.56 833.23 453.27 836.51
  C 458.23 846.01 472.83 847.32 478.85 838.01
  Q 482.55 832.27 480.11 824.00
  Q 495.55 820.65 510.61 817.09
  C 512.55 816.63 516.26 817.15 518.64 817.84
  Q 535.66 822.80 553.65 824.86
  Q 550.10 829.34 552.40 833.61
  Q 554.89 838.22 559.52 837.70
  Q 568.01 836.76 565.87 827.38
  Q 577.30 826.78 588.50 826.14
  Q 619.44 824.37 649.36 819.41
  Q 670.08 815.97 710.20 805.93
  C 713.69 805.06 717.12 803.62 720.61 802.38
  Q 721.18 802.17 721.16 802.78
  Q 721.15 803.24 720.73 803.28
  Z"
/>
<path fill="#ffffff" d="
  M 480.11 824.00
  Q 482.55 832.27 478.85 838.01
  C 472.83 847.32 458.23 846.01 453.27 836.51
  Q 451.56 833.23 451.74 827.55
  Q 452.12 820.71 457.86 816.89
  C 463.02 813.47 468.76 813.54 473.93 816.97
  Q 477.95 819.65 480.11 824.00
  Z"
/>
<path fill="#ffffff" d="
  M 565.87 827.38
  Q 568.01 836.76 559.52 837.70
  Q 554.89 838.22 552.40 833.61
  Q 550.10 829.34 553.65 824.86
  Q 561.11 819.88 565.87 827.38
  Z"
/>
</svg>
